<?xml version="1.0" encoding="UTF-8" standalone="no"?>
<!DOCTYPE svg PUBLIC "-//W3C//DTD SVG 1.1//EN"
 "http://www.w3.org/Graphics/SVG/1.1/DTD/svg11.dtd">
<!-- Generated by graphviz version 2.36.0 (20140111.2315)
 -->
<!-- Title: controllers_diagram Pages: 1 -->
<svg width="681pt" height="662pt"
 viewBox="0.00 0.00 681.00 662.00" xmlns="http://www.w3.org/2000/svg" xmlns:xlink="http://www.w3.org/1999/xlink">
<g id="graph0" class="graph" transform="scale(1 1) rotate(0) translate(4 658)">
<title>controllers_diagram</title>
<polygon fill="none" stroke="none" points="-4,4 -4,-658 677,-658 677,4 -4,4"/>
<!-- _diagram_info -->
<g id="node1" class="node"><title>_diagram_info</title>
<text text-anchor="start" x="467" y="-301.6" font-family="Times,serif" font-size="13.00">Controllers diagram</text>
<text text-anchor="start" x="467" y="-287.6" font-family="Times,serif" font-size="13.00">Date: Oct 19 2015 &#45; 12:22</text>
<text text-anchor="start" x="467" y="-273.6" font-family="Times,serif" font-size="13.00">Migration version: 20150416090551</text>
<text text-anchor="start" x="467" y="-259.6" font-family="Times,serif" font-size="13.00">Generated by RailRoady 1.4.0</text>
<text text-anchor="start" x="467" y="-245.6" font-family="Times,serif" font-size="13.00">http://railroady.prestonlee.com</text>
</g>
<!-- TestsController -->
<g id="node2" class="node"><title>TestsController</title>
<path fill="none" stroke="black" d="M335,-136.5C335,-136.5 412,-136.5 412,-136.5 418,-136.5 424,-142.5 424,-148.5 424,-148.5 424,-382.5 424,-382.5 424,-388.5 418,-394.5 412,-394.5 412,-394.5 335,-394.5 335,-394.5 329,-394.5 323,-388.5 323,-382.5 323,-382.5 323,-148.5 323,-148.5 323,-142.5 329,-136.5 335,-136.5"/>
<text text-anchor="middle" x="373.5" y="-379.3" font-family="Times,serif" font-size="14.00">TestsController</text>
<polyline fill="none" stroke="black" points="323,-371.5 424,-371.5 "/>
<text text-anchor="start" x="331" y="-356.3" font-family="Times,serif" font-size="14.00">create</text>
<text text-anchor="start" x="331" y="-341.3" font-family="Times,serif" font-size="14.00">destroy</text>
<text text-anchor="start" x="331" y="-326.3" font-family="Times,serif" font-size="14.00">edit</text>
<text text-anchor="start" x="331" y="-311.3" font-family="Times,serif" font-size="14.00">index</text>
<text text-anchor="start" x="331" y="-296.3" font-family="Times,serif" font-size="14.00">new</text>
<text text-anchor="start" x="331" y="-281.3" font-family="Times,serif" font-size="14.00">show</text>
<text text-anchor="start" x="331" y="-266.3" font-family="Times,serif" font-size="14.00">solve</text>
<text text-anchor="start" x="331" y="-251.3" font-family="Times,serif" font-size="14.00">test</text>
<text text-anchor="start" x="331" y="-236.3" font-family="Times,serif" font-size="14.00">update</text>
<polyline fill="none" stroke="black" points="323,-228.5 424,-228.5 "/>
<polyline fill="none" stroke="black" points="323,-204.5 424,-204.5 "/>
<text text-anchor="start" x="331" y="-189.3" font-family="Times,serif" font-size="14.00">_layout</text>
<text text-anchor="start" x="331" y="-174.3" font-family="Times,serif" font-size="14.00">find_lesson</text>
<text text-anchor="start" x="331" y="-159.3" font-family="Times,serif" font-size="14.00">find_test</text>
<text text-anchor="start" x="331" y="-144.3" font-family="Times,serif" font-size="14.00">test_params</text>
</g>
<!-- ApplicationController -->
<g id="node3" class="node"><title>ApplicationController</title>
<path fill="none" stroke="black" d="M12,-459.5C12,-459.5 124,-459.5 124,-459.5 130,-459.5 136,-465.5 136,-471.5 136,-471.5 136,-541.5 136,-541.5 136,-547.5 130,-553.5 124,-553.5 124,-553.5 12,-553.5 12,-553.5 6,-553.5 0,-547.5 0,-541.5 0,-541.5 0,-471.5 0,-471.5 0,-465.5 6,-459.5 12,-459.5"/>
<text text-anchor="middle" x="68" y="-538.3" font-family="Times,serif" font-size="14.00">ApplicationController</text>
<polyline fill="none" stroke="black" points="0,-530.5 136,-530.5 "/>
<polyline fill="none" stroke="black" points="0,-506.5 136,-506.5 "/>
<polyline fill="none" stroke="black" points="0,-482.5 136,-482.5 "/>
<text text-anchor="start" x="8" y="-467.3" font-family="Times,serif" font-size="14.00">_layout</text>
</g>
<!-- DocumentsController -->
<g id="node4" class="node"><title>DocumentsController</title>
<path fill="none" stroke="black" d="M471,-0.5C471,-0.5 581,-0.5 581,-0.5 587,-0.5 593,-6.5 593,-12.5 593,-12.5 593,-186.5 593,-186.5 593,-192.5 587,-198.5 581,-198.5 581,-198.5 471,-198.5 471,-198.5 465,-198.5 459,-192.5 459,-186.5 459,-186.5 459,-12.5 459,-12.5 459,-6.5 465,-0.5 471,-0.5"/>
<text text-anchor="middle" x="526" y="-183.3" font-family="Times,serif" font-size="14.00">DocumentsController</text>
<polyline fill="none" stroke="black" points="459,-175.5 593,-175.5 "/>
<text text-anchor="start" x="467" y="-160.3" font-family="Times,serif" font-size="14.00">create</text>
<text text-anchor="start" x="467" y="-145.3" font-family="Times,serif" font-size="14.00">destroy</text>
<text text-anchor="start" x="467" y="-130.3" font-family="Times,serif" font-size="14.00">edit</text>
<text text-anchor="start" x="467" y="-115.3" font-family="Times,serif" font-size="14.00">new</text>
<text text-anchor="start" x="467" y="-100.3" font-family="Times,serif" font-size="14.00">update</text>
<polyline fill="none" stroke="black" points="459,-92.5 593,-92.5 "/>
<polyline fill="none" stroke="black" points="459,-68.5 593,-68.5 "/>
<text text-anchor="start" x="467" y="-53.3" font-family="Times,serif" font-size="14.00">_layout</text>
<text text-anchor="start" x="467" y="-38.3" font-family="Times,serif" font-size="14.00">document_params</text>
<text text-anchor="start" x="467" y="-23.3" font-family="Times,serif" font-size="14.00">find_document</text>
<text text-anchor="start" x="467" y="-8.3" font-family="Times,serif" font-size="14.00">find_lesson</text>
</g>
<!-- UsersController -->
<g id="node5" class="node"><title>UsersController</title>
<path fill="none" stroke="black" d="M335,-17.5C335,-17.5 414,-17.5 414,-17.5 420,-17.5 426,-23.5 426,-29.5 426,-29.5 426,-98.5 426,-98.5 426,-104.5 420,-110.5 414,-110.5 414,-110.5 335,-110.5 335,-110.5 329,-110.5 323,-104.5 323,-98.5 323,-98.5 323,-29.5 323,-29.5 323,-23.5 329,-17.5 335,-17.5"/>
<text text-anchor="middle" x="374.5" y="-95.3" font-family="Times,serif" font-size="14.00">UsersController</text>
<polyline fill="none" stroke="black" points="323,-87.5 426,-87.5 "/>
<text text-anchor="start" x="331" y="-72.3" font-family="Times,serif" font-size="14.00">show</text>
<polyline fill="none" stroke="black" points="323,-64.5 426,-64.5 "/>
<polyline fill="none" stroke="black" points="323,-40.5 426,-40.5 "/>
<text text-anchor="start" x="331" y="-25.3" font-family="Times,serif" font-size="14.00">_layout</text>
</g>
<!-- RoomsController -->
<g id="node6" class="node"><title>RoomsController</title>
<path fill="none" stroke="black" d="M46,-221.5C46,-221.5 133,-221.5 133,-221.5 139,-221.5 145,-227.5 145,-233.5 145,-233.5 145,-362.5 145,-362.5 145,-368.5 139,-374.5 133,-374.5 133,-374.5 46,-374.5 46,-374.5 40,-374.5 34,-368.5 34,-362.5 34,-362.5 34,-233.5 34,-233.5 34,-227.5 40,-221.5 46,-221.5"/>
<text text-anchor="middle" x="89.5" y="-359.3" font-family="Times,serif" font-size="14.00">RoomsController</text>
<polyline fill="none" stroke="black" points="34,-351.5 145,-351.5 "/>
<text text-anchor="start" x="42" y="-336.3" font-family="Times,serif" font-size="14.00">create</text>
<text text-anchor="start" x="42" y="-321.3" font-family="Times,serif" font-size="14.00">index</text>
<text text-anchor="start" x="42" y="-306.3" font-family="Times,serif" font-size="14.00">new</text>
<text text-anchor="start" x="42" y="-291.3" font-family="Times,serif" font-size="14.00">party</text>
<polyline fill="none" stroke="black" points="34,-283.5 145,-283.5 "/>
<polyline fill="none" stroke="black" points="34,-259.5 145,-259.5 "/>
<text text-anchor="start" x="42" y="-244.3" font-family="Times,serif" font-size="14.00">_layout</text>
<text text-anchor="start" x="42" y="-229.3" font-family="Times,serif" font-size="14.00">current_room</text>
</g>
<!-- QuestionsController -->
<g id="node7" class="node"><title>QuestionsController</title>
<path fill="none" stroke="black" d="M182,-85.5C182,-85.5 284,-85.5 284,-85.5 290,-85.5 296,-91.5 296,-97.5 296,-97.5 296,-331.5 296,-331.5 296,-337.5 290,-343.5 284,-343.5 284,-343.5 182,-343.5 182,-343.5 176,-343.5 170,-337.5 170,-331.5 170,-331.5 170,-97.5 170,-97.5 170,-91.5 176,-85.5 182,-85.5"/>
<text text-anchor="middle" x="233" y="-328.3" font-family="Times,serif" font-size="14.00">QuestionsController</text>
<polyline fill="none" stroke="black" points="170,-320.5 296,-320.5 "/>
<text text-anchor="start" x="178" y="-305.3" font-family="Times,serif" font-size="14.00">create</text>
<text text-anchor="start" x="178" y="-290.3" font-family="Times,serif" font-size="14.00">destroy</text>
<text text-anchor="start" x="178" y="-275.3" font-family="Times,serif" font-size="14.00">edit</text>
<text text-anchor="start" x="178" y="-260.3" font-family="Times,serif" font-size="14.00">index</text>
<text text-anchor="start" x="178" y="-245.3" font-family="Times,serif" font-size="14.00">new</text>
<text text-anchor="start" x="178" y="-230.3" font-family="Times,serif" font-size="14.00">question</text>
<text text-anchor="start" x="178" y="-215.3" font-family="Times,serif" font-size="14.00">show</text>
<text text-anchor="start" x="178" y="-200.3" font-family="Times,serif" font-size="14.00">test</text>
<text text-anchor="start" x="178" y="-185.3" font-family="Times,serif" font-size="14.00">update</text>
<polyline fill="none" stroke="black" points="170,-177.5 296,-177.5 "/>
<polyline fill="none" stroke="black" points="170,-153.5 296,-153.5 "/>
<text text-anchor="start" x="178" y="-138.3" font-family="Times,serif" font-size="14.00">_layout</text>
<text text-anchor="start" x="178" y="-123.3" font-family="Times,serif" font-size="14.00">find_question</text>
<text text-anchor="start" x="178" y="-108.3" font-family="Times,serif" font-size="14.00">find_test</text>
<text text-anchor="start" x="178" y="-93.3" font-family="Times,serif" font-size="14.00">question_params</text>
</g>
<!-- LessonsController -->
<g id="node8" class="node"><title>LessonsController</title>
<path fill="none" stroke="black" d="M182,-374.5C182,-374.5 274,-374.5 274,-374.5 280,-374.5 286,-380.5 286,-386.5 286,-386.5 286,-590.5 286,-590.5 286,-596.5 280,-602.5 274,-602.5 274,-602.5 182,-602.5 182,-602.5 176,-602.5 170,-596.5 170,-590.5 170,-590.5 170,-386.5 170,-386.5 170,-380.5 176,-374.5 182,-374.5"/>
<text text-anchor="middle" x="228" y="-587.3" font-family="Times,serif" font-size="14.00">LessonsController</text>
<polyline fill="none" stroke="black" points="170,-579.5 286,-579.5 "/>
<text text-anchor="start" x="178" y="-564.3" font-family="Times,serif" font-size="14.00">create</text>
<text text-anchor="start" x="178" y="-549.3" font-family="Times,serif" font-size="14.00">destroy</text>
<text text-anchor="start" x="178" y="-534.3" font-family="Times,serif" font-size="14.00">edit</text>
<text text-anchor="start" x="178" y="-519.3" font-family="Times,serif" font-size="14.00">lesson</text>
<text text-anchor="start" x="178" y="-504.3" font-family="Times,serif" font-size="14.00">new</text>
<text text-anchor="start" x="178" y="-489.3" font-family="Times,serif" font-size="14.00">show</text>
<text text-anchor="start" x="178" y="-474.3" font-family="Times,serif" font-size="14.00">update</text>
<polyline fill="none" stroke="black" points="170,-466.5 286,-466.5 "/>
<polyline fill="none" stroke="black" points="170,-442.5 286,-442.5 "/>
<text text-anchor="start" x="178" y="-427.3" font-family="Times,serif" font-size="14.00">_layout</text>
<text text-anchor="start" x="178" y="-412.3" font-family="Times,serif" font-size="14.00">find_course</text>
<text text-anchor="start" x="178" y="-397.3" font-family="Times,serif" font-size="14.00">find_lesson</text>
<text text-anchor="start" x="178" y="-382.3" font-family="Times,serif" font-size="14.00">lesson_params</text>
</g>
<!-- StaticPagesController -->
<g id="node9" class="node"><title>StaticPagesController</title>
<path fill="none" stroke="black" d="M12,-102.5C12,-102.5 122,-102.5 122,-102.5 128,-102.5 134,-108.5 134,-114.5 134,-114.5 134,-183.5 134,-183.5 134,-189.5 128,-195.5 122,-195.5 122,-195.5 12,-195.5 12,-195.5 6,-195.5 0,-189.5 0,-183.5 0,-183.5 0,-114.5 0,-114.5 0,-108.5 6,-102.5 12,-102.5"/>
<text text-anchor="middle" x="67" y="-180.3" font-family="Times,serif" font-size="14.00">StaticPagesController</text>
<polyline fill="none" stroke="black" points="0,-172.5 134,-172.5 "/>
<text text-anchor="start" x="8" y="-157.3" font-family="Times,serif" font-size="14.00">home</text>
<polyline fill="none" stroke="black" points="0,-149.5 134,-149.5 "/>
<polyline fill="none" stroke="black" points="0,-125.5 134,-125.5 "/>
<text text-anchor="start" x="8" y="-110.3" font-family="Times,serif" font-size="14.00">_layout</text>
</g>
<!-- CoursesController -->
<g id="node10" class="node"><title>CoursesController</title>
<path fill="none" stroke="black" d="M454,-425.5C454,-425.5 546,-425.5 546,-425.5 552,-425.5 558,-431.5 558,-437.5 558,-437.5 558,-641.5 558,-641.5 558,-647.5 552,-653.5 546,-653.5 546,-653.5 454,-653.5 454,-653.5 448,-653.5 442,-647.5 442,-641.5 442,-641.5 442,-437.5 442,-437.5 442,-431.5 448,-425.5 454,-425.5"/>
<text text-anchor="middle" x="500" y="-638.3" font-family="Times,serif" font-size="14.00">CoursesController</text>
<polyline fill="none" stroke="black" points="442,-630.5 558,-630.5 "/>
<text text-anchor="start" x="450" y="-615.3" font-family="Times,serif" font-size="14.00">course</text>
<text text-anchor="start" x="450" y="-600.3" font-family="Times,serif" font-size="14.00">create</text>
<text text-anchor="start" x="450" y="-585.3" font-family="Times,serif" font-size="14.00">destroy</text>
<text text-anchor="start" x="450" y="-570.3" font-family="Times,serif" font-size="14.00">edit</text>
<text text-anchor="start" x="450" y="-555.3" font-family="Times,serif" font-size="14.00">index</text>
<text text-anchor="start" x="450" y="-540.3" font-family="Times,serif" font-size="14.00">new</text>
<text text-anchor="start" x="450" y="-525.3" font-family="Times,serif" font-size="14.00">show</text>
<text text-anchor="start" x="450" y="-510.3" font-family="Times,serif" font-size="14.00">update</text>
<polyline fill="none" stroke="black" points="442,-502.5 558,-502.5 "/>
<polyline fill="none" stroke="black" points="442,-478.5 558,-478.5 "/>
<text text-anchor="start" x="450" y="-463.3" font-family="Times,serif" font-size="14.00">_layout</text>
<text text-anchor="start" x="450" y="-448.3" font-family="Times,serif" font-size="14.00">course_params</text>
<text text-anchor="start" x="450" y="-433.3" font-family="Times,serif" font-size="14.00">find_course</text>
</g>
</g>
</svg>
