<?xml version="1.0" encoding="UTF-8" standalone="no"?>
<!DOCTYPE svg PUBLIC "-//W3C//DTD SVG 1.1//EN"
 "http://www.w3.org/Graphics/SVG/1.1/DTD/svg11.dtd">
<!-- Generated by graphviz version 2.36.0 (20140111.2315)
 -->
<!-- Title: controllers_diagram Pages: 1 -->
<svg width="1542pt" height="1451pt"
 viewBox="0.00 0.00 1542.00 1450.66" xmlns="http://www.w3.org/2000/svg" xmlns:xlink="http://www.w3.org/1999/xlink">
<g id="graph0" class="graph" transform="scale(1 1) rotate(0) translate(4 1446.66)">
<title>controllers_diagram</title>
<polygon fill="none" stroke="none" points="-4,4 -4,-1446.66 1538,-1446.66 1538,4 -4,4"/>
<!-- _diagram_info -->
<g id="node1" class="node"><title>_diagram_info</title>
<text text-anchor="start" x="1328" y="-1163.6" font-family="Times,serif" font-size="13.00">Controllers diagram</text>
<text text-anchor="start" x="1328" y="-1149.6" font-family="Times,serif" font-size="13.00">Date: Nov 21 2015 &#45; 16:36</text>
<text text-anchor="start" x="1328" y="-1135.6" font-family="Times,serif" font-size="13.00">Migration version: 20151102181508</text>
<text text-anchor="start" x="1328" y="-1121.6" font-family="Times,serif" font-size="13.00">Generated by RailRoady 1.4.1</text>
<text text-anchor="start" x="1328" y="-1107.6" font-family="Times,serif" font-size="13.00">http://railroady.prestonlee.com</text>
</g>
<!-- TestResultsController -->
<g id="node2" class="node"><title>TestResultsController</title>
<path fill="none" stroke="black" d="M395.976,-632.8C395.976,-632.8 506.976,-632.8 506.976,-632.8 512.976,-632.8 518.976,-638.8 518.976,-644.8 518.976,-644.8 518.976,-773.8 518.976,-773.8 518.976,-779.8 512.976,-785.8 506.976,-785.8 506.976,-785.8 395.976,-785.8 395.976,-785.8 389.976,-785.8 383.976,-779.8 383.976,-773.8 383.976,-773.8 383.976,-644.8 383.976,-644.8 383.976,-638.8 389.976,-632.8 395.976,-632.8"/>
<text text-anchor="middle" x="451.476" y="-770.6" font-family="Times,serif" font-size="14.00">TestResultsController</text>
<polyline fill="none" stroke="black" points="383.976,-762.8 518.976,-762.8 "/>
<text text-anchor="start" x="391.976" y="-747.6" font-family="Times,serif" font-size="14.00">index</text>
<text text-anchor="start" x="391.976" y="-732.6" font-family="Times,serif" font-size="14.00">lesson</text>
<text text-anchor="start" x="391.976" y="-717.6" font-family="Times,serif" font-size="14.00">show</text>
<polyline fill="none" stroke="black" points="383.976,-709.8 518.976,-709.8 "/>
<polyline fill="none" stroke="black" points="383.976,-685.8 518.976,-685.8 "/>
<text text-anchor="start" x="391.976" y="-670.6" font-family="Times,serif" font-size="14.00">_layout</text>
<text text-anchor="start" x="391.976" y="-655.6" font-family="Times,serif" font-size="14.00">find_lesson</text>
<text text-anchor="start" x="391.976" y="-640.6" font-family="Times,serif" font-size="14.00">find_test_result</text>
</g>
<!-- CommentsController -->
<g id="node3" class="node"><title>CommentsController</title>
<path fill="none" stroke="black" d="M843.77,-506.569C843.77,-506.569 951.77,-506.569 951.77,-506.569 957.77,-506.569 963.77,-512.569 963.77,-518.569 963.77,-518.569 963.77,-707.569 963.77,-707.569 963.77,-713.569 957.77,-719.569 951.77,-719.569 951.77,-719.569 843.77,-719.569 843.77,-719.569 837.77,-719.569 831.77,-713.569 831.77,-707.569 831.77,-707.569 831.77,-518.569 831.77,-518.569 831.77,-512.569 837.77,-506.569 843.77,-506.569"/>
<text text-anchor="middle" x="897.77" y="-704.369" font-family="Times,serif" font-size="14.00">CommentsController</text>
<polyline fill="none" stroke="black" points="831.77,-696.569 963.77,-696.569 "/>
<text text-anchor="start" x="839.77" y="-681.369" font-family="Times,serif" font-size="14.00">create</text>
<text text-anchor="start" x="839.77" y="-666.369" font-family="Times,serif" font-size="14.00">destroy</text>
<text text-anchor="start" x="839.77" y="-651.369" font-family="Times,serif" font-size="14.00">edit</text>
<text text-anchor="start" x="839.77" y="-636.369" font-family="Times,serif" font-size="14.00">index</text>
<text text-anchor="start" x="839.77" y="-621.369" font-family="Times,serif" font-size="14.00">new</text>
<text text-anchor="start" x="839.77" y="-606.369" font-family="Times,serif" font-size="14.00">show</text>
<text text-anchor="start" x="839.77" y="-591.369" font-family="Times,serif" font-size="14.00">update</text>
<polyline fill="none" stroke="black" points="831.77,-583.569 963.77,-583.569 "/>
<polyline fill="none" stroke="black" points="831.77,-559.569 963.77,-559.569 "/>
<text text-anchor="start" x="839.77" y="-544.369" font-family="Times,serif" font-size="14.00">_layout</text>
<text text-anchor="start" x="839.77" y="-529.369" font-family="Times,serif" font-size="14.00">comment_params</text>
<text text-anchor="start" x="839.77" y="-514.369" font-family="Times,serif" font-size="14.00">set_comment</text>
</g>
<!-- TestsController -->
<g id="node4" class="node"><title>TestsController</title>
<path fill="none" stroke="black" d="M507.056,-0.5C507.056,-0.5 584.056,-0.5 584.056,-0.5 590.056,-0.5 596.056,-6.5 596.056,-12.5 596.056,-12.5 596.056,-246.5 596.056,-246.5 596.056,-252.5 590.056,-258.5 584.056,-258.5 584.056,-258.5 507.056,-258.5 507.056,-258.5 501.056,-258.5 495.056,-252.5 495.056,-246.5 495.056,-246.5 495.056,-12.5 495.056,-12.5 495.056,-6.5 501.056,-0.5 507.056,-0.5"/>
<text text-anchor="middle" x="545.556" y="-243.3" font-family="Times,serif" font-size="14.00">TestsController</text>
<polyline fill="none" stroke="black" points="495.056,-235.5 596.056,-235.5 "/>
<text text-anchor="start" x="503.056" y="-220.3" font-family="Times,serif" font-size="14.00">create</text>
<text text-anchor="start" x="503.056" y="-205.3" font-family="Times,serif" font-size="14.00">destroy</text>
<text text-anchor="start" x="503.056" y="-190.3" font-family="Times,serif" font-size="14.00">edit</text>
<text text-anchor="start" x="503.056" y="-175.3" font-family="Times,serif" font-size="14.00">index</text>
<text text-anchor="start" x="503.056" y="-160.3" font-family="Times,serif" font-size="14.00">new</text>
<text text-anchor="start" x="503.056" y="-145.3" font-family="Times,serif" font-size="14.00">show</text>
<text text-anchor="start" x="503.056" y="-130.3" font-family="Times,serif" font-size="14.00">solve</text>
<text text-anchor="start" x="503.056" y="-115.3" font-family="Times,serif" font-size="14.00">test</text>
<text text-anchor="start" x="503.056" y="-100.3" font-family="Times,serif" font-size="14.00">update</text>
<polyline fill="none" stroke="black" points="495.056,-92.5 596.056,-92.5 "/>
<polyline fill="none" stroke="black" points="495.056,-68.5 596.056,-68.5 "/>
<text text-anchor="start" x="503.056" y="-53.3" font-family="Times,serif" font-size="14.00">_layout</text>
<text text-anchor="start" x="503.056" y="-38.3" font-family="Times,serif" font-size="14.00">find_lesson</text>
<text text-anchor="start" x="503.056" y="-23.3" font-family="Times,serif" font-size="14.00">find_test</text>
<text text-anchor="start" x="503.056" y="-8.3" font-family="Times,serif" font-size="14.00">test_params</text>
</g>
<!-- QuestionsController -->
<g id="node5" class="node"><title>QuestionsController</title>
<path fill="none" stroke="black" d="M191.636,-889.723C191.636,-889.723 293.636,-889.723 293.636,-889.723 299.636,-889.723 305.636,-895.723 305.636,-901.723 305.636,-901.723 305.636,-1135.72 305.636,-1135.72 305.636,-1141.72 299.636,-1147.72 293.636,-1147.72 293.636,-1147.72 191.636,-1147.72 191.636,-1147.72 185.636,-1147.72 179.636,-1141.72 179.636,-1135.72 179.636,-1135.72 179.636,-901.723 179.636,-901.723 179.636,-895.723 185.636,-889.723 191.636,-889.723"/>
<text text-anchor="middle" x="242.636" y="-1132.52" font-family="Times,serif" font-size="14.00">QuestionsController</text>
<polyline fill="none" stroke="black" points="179.636,-1124.72 305.636,-1124.72 "/>
<text text-anchor="start" x="187.636" y="-1109.52" font-family="Times,serif" font-size="14.00">create</text>
<text text-anchor="start" x="187.636" y="-1094.52" font-family="Times,serif" font-size="14.00">destroy</text>
<text text-anchor="start" x="187.636" y="-1079.52" font-family="Times,serif" font-size="14.00">edit</text>
<text text-anchor="start" x="187.636" y="-1064.52" font-family="Times,serif" font-size="14.00">index</text>
<text text-anchor="start" x="187.636" y="-1049.52" font-family="Times,serif" font-size="14.00">new</text>
<text text-anchor="start" x="187.636" y="-1034.52" font-family="Times,serif" font-size="14.00">question</text>
<text text-anchor="start" x="187.636" y="-1019.52" font-family="Times,serif" font-size="14.00">show</text>
<text text-anchor="start" x="187.636" y="-1004.52" font-family="Times,serif" font-size="14.00">test</text>
<text text-anchor="start" x="187.636" y="-989.523" font-family="Times,serif" font-size="14.00">update</text>
<polyline fill="none" stroke="black" points="179.636,-981.723 305.636,-981.723 "/>
<polyline fill="none" stroke="black" points="179.636,-957.723 305.636,-957.723 "/>
<text text-anchor="start" x="187.636" y="-942.523" font-family="Times,serif" font-size="14.00">_layout</text>
<text text-anchor="start" x="187.636" y="-927.523" font-family="Times,serif" font-size="14.00">find_question</text>
<text text-anchor="start" x="187.636" y="-912.523" font-family="Times,serif" font-size="14.00">find_test</text>
<text text-anchor="start" x="187.636" y="-897.523" font-family="Times,serif" font-size="14.00">question_params</text>
</g>
<!-- DocumentsController -->
<g id="node6" class="node"><title>DocumentsController</title>
<path fill="none" stroke="black" d="M563.013,-830.373C563.013,-830.373 673.013,-830.373 673.013,-830.373 679.013,-830.373 685.013,-836.373 685.013,-842.373 685.013,-842.373 685.013,-1016.37 685.013,-1016.37 685.013,-1022.37 679.013,-1028.37 673.013,-1028.37 673.013,-1028.37 563.013,-1028.37 563.013,-1028.37 557.013,-1028.37 551.013,-1022.37 551.013,-1016.37 551.013,-1016.37 551.013,-842.373 551.013,-842.373 551.013,-836.373 557.013,-830.373 563.013,-830.373"/>
<text text-anchor="middle" x="618.013" y="-1013.17" font-family="Times,serif" font-size="14.00">DocumentsController</text>
<polyline fill="none" stroke="black" points="551.013,-1005.37 685.013,-1005.37 "/>
<text text-anchor="start" x="559.013" y="-990.173" font-family="Times,serif" font-size="14.00">create</text>
<text text-anchor="start" x="559.013" y="-975.173" font-family="Times,serif" font-size="14.00">destroy</text>
<text text-anchor="start" x="559.013" y="-960.173" font-family="Times,serif" font-size="14.00">edit</text>
<text text-anchor="start" x="559.013" y="-945.173" font-family="Times,serif" font-size="14.00">new</text>
<text text-anchor="start" x="559.013" y="-930.173" font-family="Times,serif" font-size="14.00">update</text>
<polyline fill="none" stroke="black" points="551.013,-922.373 685.013,-922.373 "/>
<polyline fill="none" stroke="black" points="551.013,-898.373 685.013,-898.373 "/>
<text text-anchor="start" x="559.013" y="-883.173" font-family="Times,serif" font-size="14.00">_layout</text>
<text text-anchor="start" x="559.013" y="-868.173" font-family="Times,serif" font-size="14.00">document_params</text>
<text text-anchor="start" x="559.013" y="-853.173" font-family="Times,serif" font-size="14.00">find_document</text>
<text text-anchor="start" x="559.013" y="-838.173" font-family="Times,serif" font-size="14.00">find_lesson</text>
</g>
<!-- LessonsController -->
<g id="node7" class="node"><title>LessonsController</title>
<path fill="none" stroke="black" d="M45.94,-658.122C45.94,-658.122 137.94,-658.122 137.94,-658.122 143.94,-658.122 149.94,-664.122 149.94,-670.122 149.94,-670.122 149.94,-874.122 149.94,-874.122 149.94,-880.122 143.94,-886.122 137.94,-886.122 137.94,-886.122 45.94,-886.122 45.94,-886.122 39.94,-886.122 33.94,-880.122 33.94,-874.122 33.94,-874.122 33.94,-670.122 33.94,-670.122 33.94,-664.122 39.94,-658.122 45.94,-658.122"/>
<text text-anchor="middle" x="91.94" y="-870.922" font-family="Times,serif" font-size="14.00">LessonsController</text>
<polyline fill="none" stroke="black" points="33.94,-863.122 149.94,-863.122 "/>
<text text-anchor="start" x="41.94" y="-847.922" font-family="Times,serif" font-size="14.00">create</text>
<text text-anchor="start" x="41.94" y="-832.922" font-family="Times,serif" font-size="14.00">destroy</text>
<text text-anchor="start" x="41.94" y="-817.922" font-family="Times,serif" font-size="14.00">edit</text>
<text text-anchor="start" x="41.94" y="-802.922" font-family="Times,serif" font-size="14.00">lesson</text>
<text text-anchor="start" x="41.94" y="-787.922" font-family="Times,serif" font-size="14.00">new</text>
<text text-anchor="start" x="41.94" y="-772.922" font-family="Times,serif" font-size="14.00">show</text>
<text text-anchor="start" x="41.94" y="-757.922" font-family="Times,serif" font-size="14.00">update</text>
<polyline fill="none" stroke="black" points="33.94,-750.122 149.94,-750.122 "/>
<polyline fill="none" stroke="black" points="33.94,-726.122 149.94,-726.122 "/>
<text text-anchor="start" x="41.94" y="-710.922" font-family="Times,serif" font-size="14.00">_layout</text>
<text text-anchor="start" x="41.94" y="-695.922" font-family="Times,serif" font-size="14.00">find_course</text>
<text text-anchor="start" x="41.94" y="-680.922" font-family="Times,serif" font-size="14.00">find_lesson</text>
<text text-anchor="start" x="41.94" y="-665.922" font-family="Times,serif" font-size="14.00">lesson_params</text>
</g>
<!-- CoursesController -->
<g id="node8" class="node"><title>CoursesController</title>
<path fill="none" stroke="black" d="M142.747,-354.337C142.747,-354.337 234.747,-354.337 234.747,-354.337 240.747,-354.337 246.747,-360.337 246.747,-366.337 246.747,-366.337 246.747,-570.337 246.747,-570.337 246.747,-576.337 240.747,-582.337 234.747,-582.337 234.747,-582.337 142.747,-582.337 142.747,-582.337 136.747,-582.337 130.747,-576.337 130.747,-570.337 130.747,-570.337 130.747,-366.337 130.747,-366.337 130.747,-360.337 136.747,-354.337 142.747,-354.337"/>
<text text-anchor="middle" x="188.747" y="-567.137" font-family="Times,serif" font-size="14.00">CoursesController</text>
<polyline fill="none" stroke="black" points="130.747,-559.337 246.747,-559.337 "/>
<text text-anchor="start" x="138.747" y="-544.137" font-family="Times,serif" font-size="14.00">course</text>
<text text-anchor="start" x="138.747" y="-529.137" font-family="Times,serif" font-size="14.00">create</text>
<text text-anchor="start" x="138.747" y="-514.137" font-family="Times,serif" font-size="14.00">destroy</text>
<text text-anchor="start" x="138.747" y="-499.137" font-family="Times,serif" font-size="14.00">edit</text>
<text text-anchor="start" x="138.747" y="-484.137" font-family="Times,serif" font-size="14.00">index</text>
<text text-anchor="start" x="138.747" y="-469.137" font-family="Times,serif" font-size="14.00">new</text>
<text text-anchor="start" x="138.747" y="-454.137" font-family="Times,serif" font-size="14.00">show</text>
<text text-anchor="start" x="138.747" y="-439.137" font-family="Times,serif" font-size="14.00">update</text>
<polyline fill="none" stroke="black" points="130.747,-431.337 246.747,-431.337 "/>
<polyline fill="none" stroke="black" points="130.747,-407.337 246.747,-407.337 "/>
<text text-anchor="start" x="138.747" y="-392.137" font-family="Times,serif" font-size="14.00">_layout</text>
<text text-anchor="start" x="138.747" y="-377.137" font-family="Times,serif" font-size="14.00">course_params</text>
<text text-anchor="start" x="138.747" y="-362.137" font-family="Times,serif" font-size="14.00">find_course</text>
</g>
<!-- RoomsController -->
<g id="node9" class="node"><title>RoomsController</title>
<path fill="none" stroke="black" d="M1205.06,-64.7124C1205.06,-64.7124 1292.06,-64.7124 1292.06,-64.7124 1298.06,-64.7124 1304.06,-70.7124 1304.06,-76.7124 1304.06,-76.7124 1304.06,-205.712 1304.06,-205.712 1304.06,-211.712 1298.06,-217.712 1292.06,-217.712 1292.06,-217.712 1205.06,-217.712 1205.06,-217.712 1199.06,-217.712 1193.06,-211.712 1193.06,-205.712 1193.06,-205.712 1193.06,-76.7124 1193.06,-76.7124 1193.06,-70.7124 1199.06,-64.7124 1205.06,-64.7124"/>
<text text-anchor="middle" x="1248.56" y="-202.512" font-family="Times,serif" font-size="14.00">RoomsController</text>
<polyline fill="none" stroke="black" points="1193.06,-194.712 1304.06,-194.712 "/>
<text text-anchor="start" x="1201.06" y="-179.512" font-family="Times,serif" font-size="14.00">create</text>
<text text-anchor="start" x="1201.06" y="-164.512" font-family="Times,serif" font-size="14.00">index</text>
<text text-anchor="start" x="1201.06" y="-149.512" font-family="Times,serif" font-size="14.00">new</text>
<text text-anchor="start" x="1201.06" y="-134.512" font-family="Times,serif" font-size="14.00">party</text>
<polyline fill="none" stroke="black" points="1193.06,-126.712 1304.06,-126.712 "/>
<polyline fill="none" stroke="black" points="1193.06,-102.712 1304.06,-102.712 "/>
<text text-anchor="start" x="1201.06" y="-87.5124" font-family="Times,serif" font-size="14.00">_layout</text>
<text text-anchor="start" x="1201.06" y="-72.5124" font-family="Times,serif" font-size="14.00">current_room</text>
</g>
<!-- StaticPagesController -->
<g id="node10" class="node"><title>StaticPagesController</title>
<path fill="none" stroke="black" d="M98.6118,-75.948C98.6118,-75.948 208.612,-75.948 208.612,-75.948 214.612,-75.948 220.612,-81.948 220.612,-87.948 220.612,-87.948 220.612,-156.948 220.612,-156.948 220.612,-162.948 214.612,-168.948 208.612,-168.948 208.612,-168.948 98.6118,-168.948 98.6118,-168.948 92.6118,-168.948 86.6118,-162.948 86.6118,-156.948 86.6118,-156.948 86.6118,-87.948 86.6118,-87.948 86.6118,-81.948 92.6118,-75.948 98.6118,-75.948"/>
<text text-anchor="middle" x="153.612" y="-153.748" font-family="Times,serif" font-size="14.00">StaticPagesController</text>
<polyline fill="none" stroke="black" points="86.6118,-145.948 220.612,-145.948 "/>
<text text-anchor="start" x="94.6118" y="-130.748" font-family="Times,serif" font-size="14.00">home</text>
<polyline fill="none" stroke="black" points="86.6118,-122.948 220.612,-122.948 "/>
<polyline fill="none" stroke="black" points="86.6118,-98.948 220.612,-98.948 "/>
<text text-anchor="start" x="94.6118" y="-83.748" font-family="Times,serif" font-size="14.00">_layout</text>
</g>
<!-- UsersController -->
<g id="node11" class="node"><title>UsersController</title>
<path fill="none" stroke="black" d="M835.197,-118.344C835.197,-118.344 914.197,-118.344 914.197,-118.344 920.197,-118.344 926.197,-124.344 926.197,-130.344 926.197,-130.344 926.197,-199.344 926.197,-199.344 926.197,-205.344 920.197,-211.344 914.197,-211.344 914.197,-211.344 835.197,-211.344 835.197,-211.344 829.197,-211.344 823.197,-205.344 823.197,-199.344 823.197,-199.344 823.197,-130.344 823.197,-130.344 823.197,-124.344 829.197,-118.344 835.197,-118.344"/>
<text text-anchor="middle" x="874.697" y="-196.144" font-family="Times,serif" font-size="14.00">UsersController</text>
<polyline fill="none" stroke="black" points="823.197,-188.344 926.197,-188.344 "/>
<text text-anchor="start" x="831.197" y="-173.144" font-family="Times,serif" font-size="14.00">show</text>
<polyline fill="none" stroke="black" points="823.197,-165.344 926.197,-165.344 "/>
<polyline fill="none" stroke="black" points="823.197,-141.344 926.197,-141.344 "/>
<text text-anchor="start" x="831.197" y="-126.144" font-family="Times,serif" font-size="14.00">_layout</text>
</g>
<!-- ApplicationController -->
<g id="node12" class="node"><title>ApplicationController</title>
<path fill="none" stroke="black" d="M569.369,-445.988C569.369,-445.988 681.369,-445.988 681.369,-445.988 687.369,-445.988 693.369,-451.988 693.369,-457.988 693.369,-457.988 693.369,-527.988 693.369,-527.988 693.369,-533.988 687.369,-539.988 681.369,-539.988 681.369,-539.988 569.369,-539.988 569.369,-539.988 563.369,-539.988 557.369,-533.988 557.369,-527.988 557.369,-527.988 557.369,-457.988 557.369,-457.988 557.369,-451.988 563.369,-445.988 569.369,-445.988"/>
<text text-anchor="middle" x="625.369" y="-524.788" font-family="Times,serif" font-size="14.00">ApplicationController</text>
<polyline fill="none" stroke="black" points="557.369,-516.988 693.369,-516.988 "/>
<polyline fill="none" stroke="black" points="557.369,-492.988 693.369,-492.988 "/>
<polyline fill="none" stroke="black" points="557.369,-468.988 693.369,-468.988 "/>
<text text-anchor="start" x="565.369" y="-453.788" font-family="Times,serif" font-size="14.00">_layout</text>
</g>
<!-- ApplicationController&#45;&gt;TestResultsController -->
<g id="edge1" class="edge"><title>ApplicationController&#45;&gt;TestResultsController</title>
<path fill="none" stroke="black" d="M587.422,-540.191C565.736,-567.167 538.013,-601.653 513.265,-632.438"/>
</g>
<!-- ApplicationController&#45;&gt;CommentsController -->
<g id="edge2" class="edge"><title>ApplicationController&#45;&gt;CommentsController</title>
<path fill="none" stroke="black" d="M693.404,-522.979C735.637,-541.597 789.651,-565.407 831.541,-583.873"/>
</g>
<!-- ApplicationController&#45;&gt;TestsController -->
<g id="edge3" class="edge"><title>ApplicationController&#45;&gt;TestsController</title>
<path fill="none" stroke="black" d="M615.016,-445.841C604.64,-398.586 588.2,-323.713 573.918,-258.67"/>
</g>
<!-- ApplicationController&#45;&gt;QuestionsController -->
<g id="edge4" class="edge"><title>ApplicationController&#45;&gt;QuestionsController</title>
<path fill="none" stroke="black" d="M617.174,-540.208C604.723,-601.87 576.517,-711.113 522.176,-789 464.308,-871.942 368.663,-941.42 305.645,-981.563"/>
</g>
<!-- ApplicationController&#45;&gt;DocumentsController -->
<g id="edge5" class="edge"><title>ApplicationController&#45;&gt;DocumentsController</title>
<path fill="none" stroke="black" d="M624.574,-540.103C623.41,-609.195 621.211,-739.62 619.682,-830.366"/>
</g>
<!-- ApplicationController&#45;&gt;LessonsController -->
<g id="edge6" class="edge"><title>ApplicationController&#45;&gt;LessonsController</title>
<path fill="none" stroke="black" d="M557.268,-528.624C451.52,-583.96 249.674,-689.583 150.243,-741.613"/>
</g>
<!-- ApplicationController&#45;&gt;CoursesController -->
<g id="edge7" class="edge"><title>ApplicationController&#45;&gt;CoursesController</title>
<path fill="none" stroke="black" d="M557.147,-489.136C471.882,-484.322 327.416,-476.166 247.066,-471.63"/>
</g>
<!-- ApplicationController&#45;&gt;RoomsController -->
<g id="edge8" class="edge"><title>ApplicationController&#45;&gt;RoomsController</title>
<path fill="none" stroke="black" d="M693.545,-454.504C817.664,-384.441 1078.24,-237.352 1192.66,-172.763"/>
</g>
<!-- ApplicationController&#45;&gt;StaticPagesController -->
<g id="edge9" class="edge"><title>ApplicationController&#45;&gt;StaticPagesController</title>
<path fill="none" stroke="black" d="M565.141,-445.682C474.352,-374.372 303.467,-240.152 213.109,-169.18"/>
</g>
<!-- ApplicationController&#45;&gt;UsersController -->
<g id="edge10" class="edge"><title>ApplicationController&#45;&gt;UsersController</title>
<path fill="none" stroke="black" d="M661.091,-445.973C708.556,-383.504 791.913,-273.797 839.243,-211.507"/>
</g>
<!-- DeviseController -->
<g id="node19" class="node"><title>DeviseController</title>
<path fill="none" stroke="black" d="M834.07,-779.613C834.07,-779.613 974.07,-779.613 974.07,-779.613 980.07,-779.613 986.07,-785.613 986.07,-791.613 986.07,-791.613 986.07,-1114.61 986.07,-1114.61 986.07,-1120.61 980.07,-1126.61 974.07,-1126.61 974.07,-1126.61 834.07,-1126.61 834.07,-1126.61 828.07,-1126.61 822.07,-1120.61 822.07,-1114.61 822.07,-1114.61 822.07,-791.613 822.07,-791.613 822.07,-785.613 828.07,-779.613 834.07,-779.613"/>
<text text-anchor="middle" x="904.07" y="-1111.41" font-family="Times,serif" font-size="14.00">DeviseController</text>
<polyline fill="none" stroke="black" points="822.07,-1103.61 986.07,-1103.61 "/>
<text text-anchor="start" x="830.07" y="-1088.41" font-family="Times,serif" font-size="14.00">_prefixes</text>
<text text-anchor="start" x="830.07" y="-1073.41" font-family="Times,serif" font-size="14.00">devise_mapping</text>
<text text-anchor="start" x="830.07" y="-1058.41" font-family="Times,serif" font-size="14.00">resource</text>
<text text-anchor="start" x="830.07" y="-1043.41" font-family="Times,serif" font-size="14.00">resource_class</text>
<text text-anchor="start" x="830.07" y="-1028.41" font-family="Times,serif" font-size="14.00">resource_name</text>
<text text-anchor="start" x="830.07" y="-1013.41" font-family="Times,serif" font-size="14.00">scope_name</text>
<text text-anchor="start" x="830.07" y="-998.413" font-family="Times,serif" font-size="14.00">signed_in_resource</text>
<polyline fill="none" stroke="black" points="822.07,-990.613 986.07,-990.613 "/>
<text text-anchor="start" x="830.07" y="-975.413" font-family="Times,serif" font-size="14.00">assert_is_devise_resource!</text>
<text text-anchor="start" x="830.07" y="-960.413" font-family="Times,serif" font-size="14.00">clean_up_passwords</text>
<text text-anchor="start" x="830.07" y="-945.413" font-family="Times,serif" font-size="14.00">devise_i18n_options</text>
<text text-anchor="start" x="830.07" y="-930.413" font-family="Times,serif" font-size="14.00">find_message</text>
<text text-anchor="start" x="830.07" y="-915.413" font-family="Times,serif" font-size="14.00">navigational_formats</text>
<text text-anchor="start" x="830.07" y="-900.413" font-family="Times,serif" font-size="14.00">require_no_authentication</text>
<text text-anchor="start" x="830.07" y="-885.413" font-family="Times,serif" font-size="14.00">resource=</text>
<text text-anchor="start" x="830.07" y="-870.413" font-family="Times,serif" font-size="14.00">resource_params</text>
<text text-anchor="start" x="830.07" y="-855.413" font-family="Times,serif" font-size="14.00">respond_with_navigational</text>
<text text-anchor="start" x="830.07" y="-840.413" font-family="Times,serif" font-size="14.00">set_flash_message</text>
<text text-anchor="start" x="830.07" y="-825.413" font-family="Times,serif" font-size="14.00">successfully_sent?</text>
<text text-anchor="start" x="830.07" y="-810.413" font-family="Times,serif" font-size="14.00">unknown_action!</text>
<polyline fill="none" stroke="black" points="822.07,-802.613 986.07,-802.613 "/>
<text text-anchor="start" x="830.07" y="-787.413" font-family="Times,serif" font-size="14.00">_layout</text>
</g>
<!-- ApplicationController&#45;&gt;DeviseController -->
<g id="edge17" class="edge"><title>ApplicationController&#45;&gt;DeviseController</title>
<path fill="none" stroke="black" d="M653.885,-540.067C693.077,-604.772 765.186,-723.82 821.955,-817.545"/>
</g>
<!-- Devise::PasswordsController -->
<g id="node13" class="node"><title>Devise::PasswordsController</title>
<path fill="none" stroke="black" d="M12,-1257.64C12,-1257.64 290,-1257.64 290,-1257.64 296,-1257.64 302,-1263.64 302,-1269.64 302,-1269.64 302,-1427.64 302,-1427.64 302,-1433.64 296,-1439.64 290,-1439.64 290,-1439.64 12,-1439.64 12,-1439.64 6,-1439.64 0,-1433.64 0,-1427.64 0,-1427.64 0,-1269.64 0,-1269.64 0,-1263.64 6,-1257.64 12,-1257.64"/>
<text text-anchor="middle" x="151" y="-1424.44" font-family="Times,serif" font-size="14.00">Devise::PasswordsController</text>
<polyline fill="none" stroke="black" points="0,-1416.64 302,-1416.64 "/>
<text text-anchor="start" x="8" y="-1401.44" font-family="Times,serif" font-size="14.00">create</text>
<text text-anchor="start" x="8" y="-1386.44" font-family="Times,serif" font-size="14.00">edit</text>
<text text-anchor="start" x="8" y="-1371.44" font-family="Times,serif" font-size="14.00">new</text>
<text text-anchor="start" x="8" y="-1356.44" font-family="Times,serif" font-size="14.00">update</text>
<polyline fill="none" stroke="black" points="0,-1348.64 302,-1348.64 "/>
<text text-anchor="start" x="8" y="-1333.44" font-family="Times,serif" font-size="14.00">after_resetting_password_path_for</text>
<text text-anchor="start" x="8" y="-1318.44" font-family="Times,serif" font-size="14.00">after_sending_reset_password_instructions_path_for</text>
<text text-anchor="start" x="8" y="-1303.44" font-family="Times,serif" font-size="14.00">assert_reset_token_passed</text>
<text text-anchor="start" x="8" y="-1288.44" font-family="Times,serif" font-size="14.00">unlockable?</text>
<polyline fill="none" stroke="black" points="0,-1280.64 302,-1280.64 "/>
<text text-anchor="start" x="8" y="-1265.44" font-family="Times,serif" font-size="14.00">_layout</text>
</g>
<!-- Devise::ConfirmationsController -->
<g id="node14" class="node"><title>Devise::ConfirmationsController</title>
<path fill="none" stroke="black" d="M1116.3,-1250.06C1116.3,-1250.06 1392.3,-1250.06 1392.3,-1250.06 1398.3,-1250.06 1404.3,-1256.06 1404.3,-1262.06 1404.3,-1262.06 1404.3,-1375.06 1404.3,-1375.06 1404.3,-1381.06 1398.3,-1387.06 1392.3,-1387.06 1392.3,-1387.06 1116.3,-1387.06 1116.3,-1387.06 1110.3,-1387.06 1104.3,-1381.06 1104.3,-1375.06 1104.3,-1375.06 1104.3,-1262.06 1104.3,-1262.06 1104.3,-1256.06 1110.3,-1250.06 1116.3,-1250.06"/>
<text text-anchor="middle" x="1254.3" y="-1371.86" font-family="Times,serif" font-size="14.00">Devise::ConfirmationsController</text>
<polyline fill="none" stroke="black" points="1104.3,-1364.06 1404.3,-1364.06 "/>
<text text-anchor="start" x="1112.3" y="-1348.86" font-family="Times,serif" font-size="14.00">create</text>
<text text-anchor="start" x="1112.3" y="-1333.86" font-family="Times,serif" font-size="14.00">new</text>
<text text-anchor="start" x="1112.3" y="-1318.86" font-family="Times,serif" font-size="14.00">show</text>
<polyline fill="none" stroke="black" points="1104.3,-1311.06 1404.3,-1311.06 "/>
<text text-anchor="start" x="1112.3" y="-1295.86" font-family="Times,serif" font-size="14.00">after_confirmation_path_for</text>
<text text-anchor="start" x="1112.3" y="-1280.86" font-family="Times,serif" font-size="14.00">after_resending_confirmation_instructions_path_for</text>
<polyline fill="none" stroke="black" points="1104.3,-1273.06 1404.3,-1273.06 "/>
<text text-anchor="start" x="1112.3" y="-1257.86" font-family="Times,serif" font-size="14.00">_layout</text>
</g>
<!-- Devise::SessionsController -->
<g id="node15" class="node"><title>Devise::SessionsController</title>
<path fill="none" stroke="black" d="M802.116,-1245.16C802.116,-1245.16 942.116,-1245.16 942.116,-1245.16 948.116,-1245.16 954.116,-1251.16 954.116,-1257.16 954.116,-1257.16 954.116,-1430.16 954.116,-1430.16 954.116,-1436.16 948.116,-1442.16 942.116,-1442.16 942.116,-1442.16 802.116,-1442.16 802.116,-1442.16 796.116,-1442.16 790.116,-1436.16 790.116,-1430.16 790.116,-1430.16 790.116,-1257.16 790.116,-1257.16 790.116,-1251.16 796.116,-1245.16 802.116,-1245.16"/>
<text text-anchor="middle" x="872.116" y="-1426.96" font-family="Times,serif" font-size="14.00">Devise::SessionsController</text>
<polyline fill="none" stroke="black" points="790.116,-1419.16 954.116,-1419.16 "/>
<text text-anchor="start" x="798.116" y="-1403.96" font-family="Times,serif" font-size="14.00">create</text>
<text text-anchor="start" x="798.116" y="-1388.96" font-family="Times,serif" font-size="14.00">destroy</text>
<text text-anchor="start" x="798.116" y="-1373.96" font-family="Times,serif" font-size="14.00">new</text>
<polyline fill="none" stroke="black" points="790.116,-1366.16 954.116,-1366.16 "/>
<text text-anchor="start" x="798.116" y="-1350.96" font-family="Times,serif" font-size="14.00">auth_options</text>
<text text-anchor="start" x="798.116" y="-1335.96" font-family="Times,serif" font-size="14.00">serialize_options</text>
<text text-anchor="start" x="798.116" y="-1320.96" font-family="Times,serif" font-size="14.00">sign_in_params</text>
<polyline fill="none" stroke="black" points="790.116,-1313.16 954.116,-1313.16 "/>
<text text-anchor="start" x="798.116" y="-1297.96" font-family="Times,serif" font-size="14.00">_layout</text>
<text text-anchor="start" x="798.116" y="-1282.96" font-family="Times,serif" font-size="14.00">all_signed_out?</text>
<text text-anchor="start" x="798.116" y="-1267.96" font-family="Times,serif" font-size="14.00">respond_to_on_destroy</text>
<text text-anchor="start" x="798.116" y="-1252.96" font-family="Times,serif" font-size="14.00">verify_signed_out_user</text>
</g>
<!-- Devise::UnlocksController -->
<g id="node16" class="node"><title>Devise::UnlocksController</title>
<path fill="none" stroke="black" d="M432.537,-1259.06C432.537,-1259.06 664.537,-1259.06 664.537,-1259.06 670.537,-1259.06 676.537,-1265.06 676.537,-1271.06 676.537,-1271.06 676.537,-1384.06 676.537,-1384.06 676.537,-1390.06 670.537,-1396.06 664.537,-1396.06 664.537,-1396.06 432.537,-1396.06 432.537,-1396.06 426.537,-1396.06 420.537,-1390.06 420.537,-1384.06 420.537,-1384.06 420.537,-1271.06 420.537,-1271.06 420.537,-1265.06 426.537,-1259.06 432.537,-1259.06"/>
<text text-anchor="middle" x="548.537" y="-1380.86" font-family="Times,serif" font-size="14.00">Devise::UnlocksController</text>
<polyline fill="none" stroke="black" points="420.537,-1373.06 676.537,-1373.06 "/>
<text text-anchor="start" x="428.537" y="-1357.86" font-family="Times,serif" font-size="14.00">create</text>
<text text-anchor="start" x="428.537" y="-1342.86" font-family="Times,serif" font-size="14.00">new</text>
<text text-anchor="start" x="428.537" y="-1327.86" font-family="Times,serif" font-size="14.00">show</text>
<polyline fill="none" stroke="black" points="420.537,-1320.06 676.537,-1320.06 "/>
<text text-anchor="start" x="428.537" y="-1304.86" font-family="Times,serif" font-size="14.00">after_sending_unlock_instructions_path_for</text>
<text text-anchor="start" x="428.537" y="-1289.86" font-family="Times,serif" font-size="14.00">after_unlock_path_for</text>
<polyline fill="none" stroke="black" points="420.537,-1282.06 676.537,-1282.06 "/>
<text text-anchor="start" x="428.537" y="-1266.86" font-family="Times,serif" font-size="14.00">_layout</text>
</g>
<!-- Devise::OmniauthCallbacksController -->
<g id="node17" class="node"><title>Devise::OmniauthCallbacksController</title>
<path fill="none" stroke="black" d="M1161.43,-829.356C1161.43,-829.356 1362.43,-829.356 1362.43,-829.356 1368.43,-829.356 1374.43,-835.356 1374.43,-841.356 1374.43,-841.356 1374.43,-954.356 1374.43,-954.356 1374.43,-960.356 1368.43,-966.356 1362.43,-966.356 1362.43,-966.356 1161.43,-966.356 1161.43,-966.356 1155.43,-966.356 1149.43,-960.356 1149.43,-954.356 1149.43,-954.356 1149.43,-841.356 1149.43,-841.356 1149.43,-835.356 1155.43,-829.356 1161.43,-829.356"/>
<text text-anchor="middle" x="1261.93" y="-951.156" font-family="Times,serif" font-size="14.00">Devise::OmniauthCallbacksController</text>
<polyline fill="none" stroke="black" points="1149.43,-943.356 1374.43,-943.356 "/>
<text text-anchor="start" x="1157.43" y="-928.156" font-family="Times,serif" font-size="14.00">failure</text>
<text text-anchor="start" x="1157.43" y="-913.156" font-family="Times,serif" font-size="14.00">passthru</text>
<polyline fill="none" stroke="black" points="1149.43,-905.356 1374.43,-905.356 "/>
<text text-anchor="start" x="1157.43" y="-890.156" font-family="Times,serif" font-size="14.00">after_omniauth_failure_path_for</text>
<text text-anchor="start" x="1157.43" y="-875.156" font-family="Times,serif" font-size="14.00">failed_strategy</text>
<text text-anchor="start" x="1157.43" y="-860.156" font-family="Times,serif" font-size="14.00">failure_message</text>
<polyline fill="none" stroke="black" points="1149.43,-852.356 1374.43,-852.356 "/>
<text text-anchor="start" x="1157.43" y="-837.156" font-family="Times,serif" font-size="14.00">_layout</text>
</g>
<!-- Devise::RegistrationsController -->
<g id="node18" class="node"><title>Devise::RegistrationsController</title>
<path fill="none" stroke="black" d="M1171.97,-393.519C1171.97,-393.519 1340.97,-393.519 1340.97,-393.519 1346.97,-393.519 1352.97,-399.519 1352.97,-405.519 1352.97,-405.519 1352.97,-683.519 1352.97,-683.519 1352.97,-689.519 1346.97,-695.519 1340.97,-695.519 1340.97,-695.519 1171.97,-695.519 1171.97,-695.519 1165.97,-695.519 1159.97,-689.519 1159.97,-683.519 1159.97,-683.519 1159.97,-405.519 1159.97,-405.519 1159.97,-399.519 1165.97,-393.519 1171.97,-393.519"/>
<text text-anchor="middle" x="1256.47" y="-680.319" font-family="Times,serif" font-size="14.00">Devise::RegistrationsController</text>
<polyline fill="none" stroke="black" points="1159.97,-672.519 1352.97,-672.519 "/>
<text text-anchor="start" x="1167.97" y="-657.319" font-family="Times,serif" font-size="14.00">cancel</text>
<text text-anchor="start" x="1167.97" y="-642.319" font-family="Times,serif" font-size="14.00">create</text>
<text text-anchor="start" x="1167.97" y="-627.319" font-family="Times,serif" font-size="14.00">destroy</text>
<text text-anchor="start" x="1167.97" y="-612.319" font-family="Times,serif" font-size="14.00">edit</text>
<text text-anchor="start" x="1167.97" y="-597.319" font-family="Times,serif" font-size="14.00">new</text>
<text text-anchor="start" x="1167.97" y="-582.319" font-family="Times,serif" font-size="14.00">update</text>
<polyline fill="none" stroke="black" points="1159.97,-574.519 1352.97,-574.519 "/>
<text text-anchor="start" x="1167.97" y="-559.319" font-family="Times,serif" font-size="14.00">account_update_params</text>
<text text-anchor="start" x="1167.97" y="-544.319" font-family="Times,serif" font-size="14.00">after_inactive_sign_up_path_for</text>
<text text-anchor="start" x="1167.97" y="-529.319" font-family="Times,serif" font-size="14.00">after_sign_up_path_for</text>
<text text-anchor="start" x="1167.97" y="-514.319" font-family="Times,serif" font-size="14.00">after_update_path_for</text>
<text text-anchor="start" x="1167.97" y="-499.319" font-family="Times,serif" font-size="14.00">authenticate_scope!</text>
<text text-anchor="start" x="1167.97" y="-484.319" font-family="Times,serif" font-size="14.00">build_resource</text>
<text text-anchor="start" x="1167.97" y="-469.319" font-family="Times,serif" font-size="14.00">sign_up</text>
<text text-anchor="start" x="1167.97" y="-454.319" font-family="Times,serif" font-size="14.00">sign_up_params</text>
<text text-anchor="start" x="1167.97" y="-439.319" font-family="Times,serif" font-size="14.00">update_needs_confirmation?</text>
<text text-anchor="start" x="1167.97" y="-424.319" font-family="Times,serif" font-size="14.00">update_resource</text>
<polyline fill="none" stroke="black" points="1159.97,-416.519 1352.97,-416.519 "/>
<text text-anchor="start" x="1167.97" y="-401.319" font-family="Times,serif" font-size="14.00">_layout</text>
</g>
<!-- DeviseController&#45;&gt;Devise::PasswordsController -->
<g id="edge11" class="edge"><title>DeviseController&#45;&gt;Devise::PasswordsController</title>
<path fill="none" stroke="black" d="M822.045,-996.194C697.485,-1061.62 458.607,-1187.08 302.054,-1269.3"/>
</g>
<!-- DeviseController&#45;&gt;Devise::ConfirmationsController -->
<g id="edge12" class="edge"><title>DeviseController&#45;&gt;Devise::ConfirmationsController</title>
<path fill="none" stroke="black" d="M986.183,-1038.79C1047.85,-1103.14 1131.19,-1190.1 1188.5,-1249.9"/>
</g>
<!-- DeviseController&#45;&gt;Devise::SessionsController -->
<g id="edge13" class="edge"><title>DeviseController&#45;&gt;Devise::SessionsController</title>
<path fill="none" stroke="black" d="M889.868,-1126.69C886.551,-1167.23 883.131,-1209.03 880.189,-1244.99"/>
</g>
<!-- DeviseController&#45;&gt;Devise::UnlocksController -->
<g id="edge14" class="edge"><title>DeviseController&#45;&gt;Devise::UnlocksController</title>
<path fill="none" stroke="black" d="M822.057,-1039.49C758.792,-1106.12 672.464,-1197.04 613.834,-1258.79"/>
</g>
<!-- DeviseController&#45;&gt;Devise::OmniauthCallbacksController -->
<g id="edge15" class="edge"><title>DeviseController&#45;&gt;Devise::OmniauthCallbacksController</title>
<path fill="none" stroke="black" d="M986.171,-940.436C1034.56,-932.965 1096.47,-923.405 1149.37,-915.237"/>
</g>
<!-- DeviseController&#45;&gt;Devise::RegistrationsController -->
<g id="edge16" class="edge"><title>DeviseController&#45;&gt;Devise::RegistrationsController</title>
<path fill="none" stroke="black" d="M986.248,-857.832C1038.11,-797.7 1105.34,-719.747 1159.77,-656.641"/>
</g>
</g>
</svg>
