<?xml version="1.0" encoding="UTF-8" standalone="no"?>
<!DOCTYPE svg PUBLIC "-//W3C//DTD SVG 1.1//EN"
 "http://www.w3.org/Graphics/SVG/1.1/DTD/svg11.dtd">
<!-- Generated by graphviz version 2.36.0 (20140111.2315)
 -->
<!-- Title: models_diagram Pages: 1 -->
<svg width="461pt" height="374pt"
 viewBox="0.00 0.00 461.00 374.00" xmlns="http://www.w3.org/2000/svg" xmlns:xlink="http://www.w3.org/1999/xlink">
<g id="graph0" class="graph" transform="scale(1 1) rotate(0) translate(4 370)">
<title>models_diagram</title>
<polygon fill="none" stroke="none" points="-4,4 -4,-370 457,-370 457,4 -4,4"/>
<!-- _diagram_info -->
<g id="node1" class="node"><title>_diagram_info</title>
<text text-anchor="start" x="7" y="-351.6" font-family="Times,serif" font-size="13.00">Models diagram</text>
<text text-anchor="start" x="7" y="-337.6" font-family="Times,serif" font-size="13.00">Date: Oct 19 2015 &#45; 12:22</text>
<text text-anchor="start" x="7" y="-323.6" font-family="Times,serif" font-size="13.00">Migration version: 20150416090551</text>
<text text-anchor="start" x="7" y="-309.6" font-family="Times,serif" font-size="13.00">Generated by RailRoady 1.4.0</text>
<text text-anchor="start" x="7" y="-295.6" font-family="Times,serif" font-size="13.00">http://railroady.prestonlee.com</text>
</g>
<!-- Question -->
<g id="node2" class="node"><title>Question</title>
<ellipse fill="none" stroke="black" cx="314" cy="-90" rx="42.3701" ry="18"/>
<text text-anchor="middle" x="314" y="-86.3" font-family="Times,serif" font-size="14.00">Question</text>
</g>
<!-- Anserw -->
<g id="node7" class="node"><title>Anserw</title>
<ellipse fill="none" stroke="black" cx="314" cy="-18" rx="38.0212" ry="18"/>
<text text-anchor="middle" x="314" y="-14.3" font-family="Times,serif" font-size="14.00">Anserw</text>
</g>
<!-- Question&#45;&gt;Anserw -->
<g id="edge1" class="edge"><title>Question&#45;&gt;Anserw</title>
<path fill="none" stroke="#602505" d="M314,-63.6398C314,-58.0629 314,-52.1319 314,-46.4761"/>
<ellipse fill="none" stroke="#602505" cx="314" cy="-67.6966" rx="4" ry="4"/>
<polygon fill="#602505" stroke="#602505" points="314,-46.1043 318.5,-36.1043 314,-41.1043 314,-36.1043 314,-36.1043 314,-36.1043 314,-41.1043 309.5,-36.1044 314,-46.1043 314,-46.1043"/>
</g>
<!-- Course -->
<g id="node3" class="node"><title>Course</title>
<ellipse fill="none" stroke="black" cx="267" cy="-327" rx="35.6194" ry="18"/>
<text text-anchor="middle" x="267" y="-323.3" font-family="Times,serif" font-size="14.00">Course</text>
</g>
<!-- Lesson -->
<g id="node8" class="node"><title>Lesson</title>
<ellipse fill="none" stroke="black" cx="267" cy="-234" rx="35.6194" ry="18"/>
<text text-anchor="middle" x="267" y="-230.3" font-family="Times,serif" font-size="14.00">Lesson</text>
</g>
<!-- Course&#45;&gt;Lesson -->
<g id="edge2" class="edge"><title>Course&#45;&gt;Lesson</title>
<path fill="none" stroke="#98a9d0" d="M267,-300.729C267,-288.725 267,-274.362 267,-262.129"/>
<ellipse fill="none" stroke="#98a9d0" cx="267" cy="-304.884" rx="4" ry="4"/>
<polygon fill="#98a9d0" stroke="#98a9d0" points="267,-262.04 271.5,-252.04 267,-257.04 267,-252.04 267,-252.04 267,-252.04 267,-257.04 262.5,-252.04 267,-262.04 267,-262.04"/>
</g>
<!-- Document -->
<g id="node4" class="node"><title>Document</title>
<ellipse fill="none" stroke="black" cx="221" cy="-162" rx="48.1437" ry="18"/>
<text text-anchor="middle" x="221" y="-158.3" font-family="Times,serif" font-size="14.00">Document</text>
</g>
<!-- User -->
<g id="node5" class="node"><title>User</title>
<ellipse fill="none" stroke="black" cx="353" cy="-327" rx="26.949" ry="18"/>
<text text-anchor="middle" x="353" y="-323.3" font-family="Times,serif" font-size="14.00">User</text>
</g>
<!-- Room -->
<g id="node10" class="node"><title>Room</title>
<ellipse fill="none" stroke="black" cx="353" cy="-234" rx="32.2457" ry="18"/>
<text text-anchor="middle" x="353" y="-230.3" font-family="Times,serif" font-size="14.00">Room</text>
</g>
<!-- User&#45;&gt;Room -->
<g id="edge3" class="edge"><title>User&#45;&gt;Room</title>
<path fill="none" stroke="#2b1075" d="M353,-298.549C353,-287.083 353,-273.792 353,-262.339"/>
<polygon fill="#2b1075" stroke="#2b1075" points="353,-298.884 348.5,-308.884 353,-303.884 353,-308.884 353,-308.884 353,-308.884 353,-303.884 357.5,-308.884 353,-298.884 353,-298.884"/>
<polygon fill="#2b1075" stroke="#2b1075" points="353,-262.04 357.5,-252.04 353,-257.04 353,-252.04 353,-252.04 353,-252.04 353,-257.04 348.5,-252.04 353,-262.04 353,-262.04"/>
</g>
<!-- Ability -->
<g id="node6" class="node"><title>Ability</title>
<polygon fill="none" stroke="black" points="453.25,-345 398.75,-345 398.75,-309 453.25,-309 453.25,-345"/>
<text text-anchor="middle" x="426" y="-323.3" font-family="Times,serif" font-size="14.00">Ability</text>
</g>
<!-- Lesson&#45;&gt;Document -->
<g id="edge5" class="edge"><title>Lesson&#45;&gt;Document</title>
<path fill="none" stroke="#a93973" d="M251.803,-209.874C247.236,-202.924 242.203,-195.265 237.552,-188.188"/>
<ellipse fill="none" stroke="#a93973" cx="254.134" cy="-213.422" rx="4.00002" ry="4.00002"/>
<polygon fill="#a93973" stroke="#a93973" points="237.422,-187.99 235.691,-177.162 234.676,-183.812 231.931,-179.633 231.931,-179.633 231.931,-179.633 234.676,-183.812 228.17,-182.105 237.422,-187.99 237.422,-187.99"/>
</g>
<!-- Test -->
<g id="node9" class="node"><title>Test</title>
<ellipse fill="none" stroke="black" cx="314" cy="-162" rx="27" ry="18"/>
<text text-anchor="middle" x="314" y="-158.3" font-family="Times,serif" font-size="14.00">Test</text>
</g>
<!-- Lesson&#45;&gt;Test -->
<g id="edge4" class="edge"><title>Lesson&#45;&gt;Test</title>
<path fill="none" stroke="#17271c" d="M282.469,-209.961C287.744,-202.105 293.632,-193.335 298.879,-185.521"/>
<ellipse fill="none" stroke="#17271c" cx="280.131" cy="-213.444" rx="4.00002" ry="4.00002"/>
<ellipse fill="#17271c" stroke="#17271c" cx="301.252" cy="-181.987" rx="4.00002" ry="4.00002"/>
</g>
<!-- Test&#45;&gt;Question -->
<g id="edge6" class="edge"><title>Test&#45;&gt;Question</title>
<path fill="none" stroke="#c0bdc6" d="M314,-135.64C314,-130.063 314,-124.132 314,-118.476"/>
<ellipse fill="none" stroke="#c0bdc6" cx="314" cy="-139.697" rx="4" ry="4"/>
<polygon fill="#c0bdc6" stroke="#c0bdc6" points="314,-118.104 318.5,-108.104 314,-113.104 314,-108.104 314,-108.104 314,-108.104 314,-113.104 309.5,-108.104 314,-118.104 314,-118.104"/>
</g>
</g>
</svg>
