<?xml version="1.0" encoding="UTF-8" standalone="no"?>
<!DOCTYPE svg PUBLIC "-//W3C//DTD SVG 1.1//EN"
 "http://www.w3.org/Graphics/SVG/1.1/DTD/svg11.dtd">
<!-- Generated by graphviz version 2.36.0 (20140111.2315)
 -->
<!-- Title: models_diagram Pages: 1 -->
<svg width="1374pt" height="1272pt"
 viewBox="0.00 0.00 1374.00 1272.00" xmlns="http://www.w3.org/2000/svg" xmlns:xlink="http://www.w3.org/1999/xlink">
<g id="graph0" class="graph" transform="scale(1 1) rotate(0) translate(4 1268)">
<title>models_diagram</title>
<polygon fill="none" stroke="none" points="-4,4 -4,-1268 1370,-1268 1370,4 -4,4"/>
<!-- _diagram_info -->
<g id="node1" class="node"><title>_diagram_info</title>
<text text-anchor="start" x="224" y="-1249.6" font-family="Times,serif" font-size="13.00">Models diagram</text>
<text text-anchor="start" x="224" y="-1235.6" font-family="Times,serif" font-size="13.00">Date: Nov 21 2015 &#45; 16:36</text>
<text text-anchor="start" x="224" y="-1221.6" font-family="Times,serif" font-size="13.00">Migration version: 20151102181508</text>
<text text-anchor="start" x="224" y="-1207.6" font-family="Times,serif" font-size="13.00">Generated by RailRoady 1.4.1</text>
<text text-anchor="start" x="224" y="-1193.6" font-family="Times,serif" font-size="13.00">http://railroady.prestonlee.com</text>
</g>
<!-- Test -->
<g id="node2" class="node"><title>Test</title>
<path fill="none" stroke="black" d="M418,-547.5C418,-547.5 638,-547.5 638,-547.5 644,-547.5 650,-553.5 650,-559.5 650,-559.5 650,-656.5 650,-656.5 650,-662.5 644,-668.5 638,-668.5 638,-668.5 418,-668.5 418,-668.5 412,-668.5 406,-662.5 406,-656.5 406,-656.5 406,-559.5 406,-559.5 406,-553.5 412,-547.5 418,-547.5"/>
<text text-anchor="middle" x="528" y="-653.3" font-family="Times,serif" font-size="14.00">Test</text>
<polyline fill="none" stroke="black" points="406,-645.5 650,-645.5 "/>
<text text-anchor="start" x="414" y="-630.3" font-family="Times,serif" font-size="14.00">id :integer</text>
<text text-anchor="start" x="414" y="-615.3" font-family="Times,serif" font-size="14.00">created_at :timestamp without time zone</text>
<text text-anchor="start" x="414" y="-600.3" font-family="Times,serif" font-size="14.00">updated_at :timestamp without time zone</text>
<text text-anchor="start" x="414" y="-585.3" font-family="Times,serif" font-size="14.00">title :character varying</text>
<text text-anchor="start" x="414" y="-570.3" font-family="Times,serif" font-size="14.00">description :character varying</text>
<text text-anchor="start" x="414" y="-555.3" font-family="Times,serif" font-size="14.00">lesson_id :integer</text>
</g>
<!-- TestResult -->
<g id="node5" class="node"><title>TestResult</title>
<path fill="none" stroke="black" d="M491,-335C491,-335 711,-335 711,-335 717,-335 723,-341 723,-347 723,-347 723,-459 723,-459 723,-465 717,-471 711,-471 711,-471 491,-471 491,-471 485,-471 479,-465 479,-459 479,-459 479,-347 479,-347 479,-341 485,-335 491,-335"/>
<text text-anchor="middle" x="601" y="-455.8" font-family="Times,serif" font-size="14.00">TestResult</text>
<polyline fill="none" stroke="black" points="479,-448 723,-448 "/>
<text text-anchor="start" x="487" y="-432.8" font-family="Times,serif" font-size="14.00">id :integer</text>
<text text-anchor="start" x="487" y="-417.8" font-family="Times,serif" font-size="14.00">max :integer</text>
<text text-anchor="start" x="487" y="-402.8" font-family="Times,serif" font-size="14.00">points :integer</text>
<text text-anchor="start" x="487" y="-387.8" font-family="Times,serif" font-size="14.00">user_id :integer</text>
<text text-anchor="start" x="487" y="-372.8" font-family="Times,serif" font-size="14.00">test_id :integer</text>
<text text-anchor="start" x="487" y="-357.8" font-family="Times,serif" font-size="14.00">created_at :timestamp without time zone</text>
<text text-anchor="start" x="487" y="-342.8" font-family="Times,serif" font-size="14.00">updated_at :timestamp without time zone</text>
</g>
<!-- Test&#45;&gt;TestResult -->
<g id="edge3" class="edge"><title>Test&#45;&gt;TestResult</title>
<path fill="none" stroke="#a8c39d" d="M552.181,-539.758C559.011,-520.765 566.493,-499.959 573.502,-480.466"/>
<ellipse fill="none" stroke="#a8c39d" cx="550.763" cy="-543.701" rx="4.00001" ry="4.00001"/>
<polygon fill="#a8c39d" stroke="#a8c39d" points="573.517,-480.427 581.135,-472.539 575.209,-475.721 576.9,-471.016 576.9,-471.016 576.9,-471.016 575.209,-475.721 572.666,-469.494 573.517,-480.427 573.517,-480.427"/>
</g>
<!-- Question -->
<g id="node10" class="node"><title>Question</title>
<path fill="none" stroke="black" d="M144,-350C144,-350 364,-350 364,-350 370,-350 376,-356 376,-362 376,-362 376,-444 376,-444 376,-450 370,-456 364,-456 364,-456 144,-456 144,-456 138,-456 132,-450 132,-444 132,-444 132,-362 132,-362 132,-356 138,-350 144,-350"/>
<text text-anchor="middle" x="254" y="-440.8" font-family="Times,serif" font-size="14.00">Question</text>
<polyline fill="none" stroke="black" points="132,-433 376,-433 "/>
<text text-anchor="start" x="140" y="-417.8" font-family="Times,serif" font-size="14.00">id :integer</text>
<text text-anchor="start" x="140" y="-402.8" font-family="Times,serif" font-size="14.00">content :character varying</text>
<text text-anchor="start" x="140" y="-387.8" font-family="Times,serif" font-size="14.00">created_at :timestamp without time zone</text>
<text text-anchor="start" x="140" y="-372.8" font-family="Times,serif" font-size="14.00">updated_at :timestamp without time zone</text>
<text text-anchor="start" x="140" y="-357.8" font-family="Times,serif" font-size="14.00">test_id :integer</text>
</g>
<!-- Test&#45;&gt;Question -->
<g id="edge2" class="edge"><title>Test&#45;&gt;Question</title>
<path fill="none" stroke="#338b06" d="M441.179,-542.677C406.376,-516.892 366.56,-487.393 332.622,-462.249"/>
<ellipse fill="none" stroke="#338b06" cx="444.428" cy="-545.084" rx="4.00002" ry="4.00002"/>
<polygon fill="#338b06" stroke="#338b06" points="332.614,-462.243 327.258,-452.675 328.597,-459.267 324.579,-456.29 324.579,-456.29 324.579,-456.29 328.597,-459.267 321.9,-459.906 332.614,-462.243 332.614,-462.243"/>
</g>
<!-- PublicActivity::Activity -->
<g id="node14" class="node"><title>PublicActivity::Activity</title>
<ellipse fill="none" stroke="black" cx="770" cy="-221" rx="95.3122" ry="18"/>
<text text-anchor="middle" x="770" y="-217.3" font-family="Times,serif" font-size="14.00">PublicActivity::Activity</text>
</g>
<!-- Test&#45;&gt;PublicActivity::Activity -->
<g id="edge1" class="edge"><title>Test&#45;&gt;PublicActivity::Activity</title>
<path fill="none" stroke="#7a7dec" d="M461.622,-541.25C445.129,-520.767 429.69,-496.955 421,-472 400.829,-414.078 384.859,-383.554 421,-334 453.334,-289.665 600.5,-254.234 693.1,-235.831"/>
<ellipse fill="none" stroke="#7a7dec" cx="464.225" cy="-544.411" rx="4.00002" ry="4.00002"/>
<polygon fill="#7a7dec" stroke="#7a7dec" points="693.184,-235.815 703.864,-238.304 698.09,-234.852 702.996,-233.888 702.996,-233.888 702.996,-233.888 698.09,-234.852 702.129,-229.472 693.184,-235.815 693.184,-235.815"/>
<text text-anchor="middle" x="445.5" y="-399.3" font-family="Times,serif" font-size="14.00">activities</text>
</g>
<!-- Ability -->
<g id="node3" class="node"><title>Ability</title>
<polygon fill="none" stroke="black" points="1304.5,-1056 1304.5,-1102 1359.5,-1102 1359.5,-1056 1304.5,-1056"/>
<text text-anchor="middle" x="1332" y="-1086.8" font-family="Times,serif" font-size="14.00">Ability</text>
<polyline fill="none" stroke="black" points="1304.5,-1079 1359.5,-1079 "/>
<text text-anchor="middle" x="1332" y="-1063.8" font-family="Times,serif" font-size="14.00"> </text>
</g>
<!-- Course -->
<g id="node4" class="node"><title>Course</title>
<path fill="none" stroke="black" d="M569,-1026C569,-1026 789,-1026 789,-1026 795,-1026 801,-1032 801,-1038 801,-1038 801,-1120 801,-1120 801,-1126 795,-1132 789,-1132 789,-1132 569,-1132 569,-1132 563,-1132 557,-1126 557,-1120 557,-1120 557,-1038 557,-1038 557,-1032 563,-1026 569,-1026"/>
<text text-anchor="middle" x="679" y="-1116.8" font-family="Times,serif" font-size="14.00">Course</text>
<polyline fill="none" stroke="black" points="557,-1109 801,-1109 "/>
<text text-anchor="start" x="565" y="-1093.8" font-family="Times,serif" font-size="14.00">id :integer</text>
<text text-anchor="start" x="565" y="-1078.8" font-family="Times,serif" font-size="14.00">title :character varying</text>
<text text-anchor="start" x="565" y="-1063.8" font-family="Times,serif" font-size="14.00">description :character varying</text>
<text text-anchor="start" x="565" y="-1048.8" font-family="Times,serif" font-size="14.00">created_at :timestamp without time zone</text>
<text text-anchor="start" x="565" y="-1033.8" font-family="Times,serif" font-size="14.00">updated_at :timestamp without time zone</text>
</g>
<!-- Lesson -->
<g id="node11" class="node"><title>Lesson</title>
<path fill="none" stroke="black" d="M455,-775.5C455,-775.5 675,-775.5 675,-775.5 681,-775.5 687,-781.5 687,-787.5 687,-787.5 687,-914.5 687,-914.5 687,-920.5 681,-926.5 675,-926.5 675,-926.5 455,-926.5 455,-926.5 449,-926.5 443,-920.5 443,-914.5 443,-914.5 443,-787.5 443,-787.5 443,-781.5 449,-775.5 455,-775.5"/>
<text text-anchor="middle" x="565" y="-911.3" font-family="Times,serif" font-size="14.00">Lesson</text>
<polyline fill="none" stroke="black" points="443,-903.5 687,-903.5 "/>
<text text-anchor="start" x="451" y="-888.3" font-family="Times,serif" font-size="14.00">id :integer</text>
<text text-anchor="start" x="451" y="-873.3" font-family="Times,serif" font-size="14.00">title :character varying</text>
<text text-anchor="start" x="451" y="-858.3" font-family="Times,serif" font-size="14.00">description :character varying</text>
<text text-anchor="start" x="451" y="-843.3" font-family="Times,serif" font-size="14.00">course_id :integer</text>
<text text-anchor="start" x="451" y="-828.3" font-family="Times,serif" font-size="14.00">created_at :timestamp without time zone</text>
<text text-anchor="start" x="451" y="-813.3" font-family="Times,serif" font-size="14.00">updated_at :timestamp without time zone</text>
<text text-anchor="start" x="451" y="-798.3" font-family="Times,serif" font-size="14.00">content :text</text>
<text text-anchor="start" x="451" y="-783.3" font-family="Times,serif" font-size="14.00">extern_video_url :character varying</text>
</g>
<!-- Course&#45;&gt;Lesson -->
<g id="edge8" class="edge"><title>Course&#45;&gt;Lesson</title>
<path fill="none" stroke="#26cc2a" d="M648.969,-1018.47C636.211,-993.174 621.111,-963.238 607.258,-935.776"/>
<ellipse fill="none" stroke="#26cc2a" cx="650.901" cy="-1022.3" rx="4.00002" ry="4.00002"/>
<polygon fill="#26cc2a" stroke="#26cc2a" points="607.117,-935.496 606.631,-924.541 604.865,-931.031 602.614,-926.567 602.614,-926.567 602.614,-926.567 604.865,-931.031 598.596,-928.594 607.117,-935.496 607.117,-935.496"/>
</g>
<!-- Comment -->
<g id="node13" class="node"><title>Comment</title>
<path fill="none" stroke="black" d="M868,-540C868,-540 1088,-540 1088,-540 1094,-540 1100,-546 1100,-552 1100,-552 1100,-664 1100,-664 1100,-670 1094,-676 1088,-676 1088,-676 868,-676 868,-676 862,-676 856,-670 856,-664 856,-664 856,-552 856,-552 856,-546 862,-540 868,-540"/>
<text text-anchor="middle" x="978" y="-660.8" font-family="Times,serif" font-size="14.00">Comment</text>
<polyline fill="none" stroke="black" points="856,-653 1100,-653 "/>
<text text-anchor="start" x="864" y="-637.8" font-family="Times,serif" font-size="14.00">id :integer</text>
<text text-anchor="start" x="864" y="-622.8" font-family="Times,serif" font-size="14.00">description :character varying</text>
<text text-anchor="start" x="864" y="-607.8" font-family="Times,serif" font-size="14.00">course_id :integer</text>
<text text-anchor="start" x="864" y="-592.8" font-family="Times,serif" font-size="14.00">lesson_id :integer</text>
<text text-anchor="start" x="864" y="-577.8" font-family="Times,serif" font-size="14.00">user_id :integer</text>
<text text-anchor="start" x="864" y="-562.8" font-family="Times,serif" font-size="14.00">created_at :timestamp without time zone</text>
<text text-anchor="start" x="864" y="-547.8" font-family="Times,serif" font-size="14.00">updated_at :timestamp without time zone</text>
</g>
<!-- Course&#45;&gt;Comment -->
<g id="edge7" class="edge"><title>Course&#45;&gt;Comment</title>
<path fill="none" stroke="#c6a61d" d="M708.548,-1018.7C715.62,-1003.63 722.887,-987.352 729,-972 774.34,-858.138 739.219,-806.32 815,-710 816.11,-708.59 834.974,-696.665 859.503,-681.471"/>
<ellipse fill="none" stroke="#c6a61d" cx="706.808" cy="-1022.38" rx="4.00002" ry="4.00002"/>
<polygon fill="#c6a61d" stroke="#c6a61d" points="859.516,-681.463 870.388,-680.031 863.769,-678.833 868.022,-676.203 868.022,-676.203 868.022,-676.203 863.769,-678.833 865.655,-672.376 859.516,-681.463 859.516,-681.463"/>
</g>
<!-- Course&#45;&gt;PublicActivity::Activity -->
<g id="edge6" class="edge"><title>Course&#45;&gt;PublicActivity::Activity</title>
<path fill="none" stroke="#ce9da2" d="M723.99,-1018.58C728.78,-1010.01 732.993,-1001.03 736,-992 828.294,-714.861 787.909,-350.476 774.011,-249.153"/>
<ellipse fill="none" stroke="#ce9da2" cx="721.863" cy="-1022.22" rx="4.00002" ry="4.00002"/>
<polygon fill="#ce9da2" stroke="#ce9da2" points="773.996,-249.045 777.061,-238.516 773.3,-244.094 772.605,-239.142 772.605,-239.142 772.605,-239.142 773.3,-244.094 768.148,-239.768 773.996,-249.045 773.996,-249.045"/>
<text text-anchor="middle" x="819.5" y="-604.3" font-family="Times,serif" font-size="14.00">activities</text>
</g>
<!-- UserAnserw -->
<g id="node6" class="node"><title>UserAnserw</title>
<path fill="none" stroke="black" d="M491,-0.5C491,-0.5 711,-0.5 711,-0.5 717,-0.5 723,-6.5 723,-12.5 723,-12.5 723,-109.5 723,-109.5 723,-115.5 717,-121.5 711,-121.5 711,-121.5 491,-121.5 491,-121.5 485,-121.5 479,-115.5 479,-109.5 479,-109.5 479,-12.5 479,-12.5 479,-6.5 485,-0.5 491,-0.5"/>
<text text-anchor="middle" x="601" y="-106.3" font-family="Times,serif" font-size="14.00">UserAnserw</text>
<polyline fill="none" stroke="black" points="479,-98.5 723,-98.5 "/>
<text text-anchor="start" x="487" y="-83.3" font-family="Times,serif" font-size="14.00">id :integer</text>
<text text-anchor="start" x="487" y="-68.3" font-family="Times,serif" font-size="14.00">created_at :timestamp without time zone</text>
<text text-anchor="start" x="487" y="-53.3" font-family="Times,serif" font-size="14.00">updated_at :timestamp without time zone</text>
<text text-anchor="start" x="487" y="-38.3" font-family="Times,serif" font-size="14.00">anserw_id :integer</text>
<text text-anchor="start" x="487" y="-23.3" font-family="Times,serif" font-size="14.00">correct :boolean</text>
<text text-anchor="start" x="487" y="-8.3" font-family="Times,serif" font-size="14.00">test_result_id :integer</text>
</g>
<!-- TestResult&#45;&gt;UserAnserw -->
<g id="edge11" class="edge"><title>TestResult&#45;&gt;UserAnserw</title>
<path fill="none" stroke="#0fbc7a" d="M601,-326.661C601,-268.521 601,-188.697 601,-131.956"/>
<ellipse fill="none" stroke="#0fbc7a" cx="601" cy="-330.827" rx="4" ry="4"/>
<polygon fill="#0fbc7a" stroke="#0fbc7a" points="601,-131.64 605.5,-121.64 601,-126.64 601,-121.64 601,-121.64 601,-121.64 601,-126.64 596.5,-121.64 601,-131.64 601,-131.64"/>
</g>
<!-- TestResult&#45;&gt;PublicActivity::Activity -->
<g id="edge10" class="edge"><title>TestResult&#45;&gt;PublicActivity::Activity</title>
<path fill="none" stroke="#51374f" d="M661.958,-328.651C670.545,-318.876 679.384,-309.096 688,-300 705.882,-281.122 727.19,-260.916 743.603,-245.801"/>
<ellipse fill="none" stroke="#51374f" cx="659.279" cy="-331.718" rx="4.00002" ry="4.00002"/>
<polygon fill="#51374f" stroke="#51374f" points="743.854,-245.571 754.269,-242.138 747.542,-242.195 751.23,-238.818 751.23,-238.818 751.23,-238.818 747.542,-242.195 748.192,-235.499 743.854,-245.571 743.854,-245.571"/>
<text text-anchor="middle" x="712.5" y="-304.3" font-family="Times,serif" font-size="14.00">activities</text>
</g>
<!-- Room -->
<g id="node7" class="node"><title>Room</title>
<path fill="none" stroke="black" d="M907,-1011C907,-1011 1127,-1011 1127,-1011 1133,-1011 1139,-1017 1139,-1023 1139,-1023 1139,-1135 1139,-1135 1139,-1141 1133,-1147 1127,-1147 1127,-1147 907,-1147 907,-1147 901,-1147 895,-1141 895,-1135 895,-1135 895,-1023 895,-1023 895,-1017 901,-1011 907,-1011"/>
<text text-anchor="middle" x="1017" y="-1131.8" font-family="Times,serif" font-size="14.00">Room</text>
<polyline fill="none" stroke="black" points="895,-1124 1139,-1124 "/>
<text text-anchor="start" x="903" y="-1108.8" font-family="Times,serif" font-size="14.00">id :integer</text>
<text text-anchor="start" x="903" y="-1093.8" font-family="Times,serif" font-size="14.00">name :character varying</text>
<text text-anchor="start" x="903" y="-1078.8" font-family="Times,serif" font-size="14.00">sessionId :character varying</text>
<text text-anchor="start" x="903" y="-1063.8" font-family="Times,serif" font-size="14.00">public :boolean</text>
<text text-anchor="start" x="903" y="-1048.8" font-family="Times,serif" font-size="14.00">created_at :timestamp without time zone</text>
<text text-anchor="start" x="903" y="-1033.8" font-family="Times,serif" font-size="14.00">updated_at :timestamp without time zone</text>
<text text-anchor="start" x="903" y="-1018.8" font-family="Times,serif" font-size="14.00">description :character varying</text>
</g>
<!-- User -->
<g id="node9" class="node"><title>User</title>
<path fill="none" stroke="black" d="M869.5,-730.5C869.5,-730.5 1158.5,-730.5 1158.5,-730.5 1164.5,-730.5 1170.5,-736.5 1170.5,-742.5 1170.5,-742.5 1170.5,-959.5 1170.5,-959.5 1170.5,-965.5 1164.5,-971.5 1158.5,-971.5 1158.5,-971.5 869.5,-971.5 869.5,-971.5 863.5,-971.5 857.5,-965.5 857.5,-959.5 857.5,-959.5 857.5,-742.5 857.5,-742.5 857.5,-736.5 863.5,-730.5 869.5,-730.5"/>
<text text-anchor="middle" x="1014" y="-956.3" font-family="Times,serif" font-size="14.00">User</text>
<polyline fill="none" stroke="black" points="857.5,-948.5 1170.5,-948.5 "/>
<text text-anchor="start" x="865.5" y="-933.3" font-family="Times,serif" font-size="14.00">id :integer</text>
<text text-anchor="start" x="865.5" y="-918.3" font-family="Times,serif" font-size="14.00">email :character varying</text>
<text text-anchor="start" x="865.5" y="-903.3" font-family="Times,serif" font-size="14.00">encrypted_password :character varying</text>
<text text-anchor="start" x="865.5" y="-888.3" font-family="Times,serif" font-size="14.00">reset_password_token :character varying</text>
<text text-anchor="start" x="865.5" y="-873.3" font-family="Times,serif" font-size="14.00">reset_password_sent_at :timestamp without time zone</text>
<text text-anchor="start" x="865.5" y="-858.3" font-family="Times,serif" font-size="14.00">remember_created_at :timestamp without time zone</text>
<text text-anchor="start" x="865.5" y="-843.3" font-family="Times,serif" font-size="14.00">sign_in_count :integer</text>
<text text-anchor="start" x="865.5" y="-828.3" font-family="Times,serif" font-size="14.00">current_sign_in_at :timestamp without time zone</text>
<text text-anchor="start" x="865.5" y="-813.3" font-family="Times,serif" font-size="14.00">last_sign_in_at :timestamp without time zone</text>
<text text-anchor="start" x="865.5" y="-798.3" font-family="Times,serif" font-size="14.00">current_sign_in_ip :inet</text>
<text text-anchor="start" x="865.5" y="-783.3" font-family="Times,serif" font-size="14.00">last_sign_in_ip :inet</text>
<text text-anchor="start" x="865.5" y="-768.3" font-family="Times,serif" font-size="14.00">created_at :timestamp without time zone</text>
<text text-anchor="start" x="865.5" y="-753.3" font-family="Times,serif" font-size="14.00">updated_at :timestamp without time zone</text>
<text text-anchor="start" x="865.5" y="-738.3" font-family="Times,serif" font-size="14.00">admin :boolean</text>
</g>
<!-- Room&#45;&gt;User -->
<g id="edge15" class="edge"><title>Room&#45;&gt;User</title>
<path fill="none" stroke="#14e018" d="M1015.97,-1000.78C1015.89,-994.625 1015.81,-988.31 1015.72,-981.922"/>
<polygon fill="#14e018" stroke="#14e018" points="1015.98,-1000.81 1011.61,-1010.86 1016.04,-1005.8 1016.11,-1010.8 1016.11,-1010.8 1016.11,-1010.8 1016.04,-1005.8 1020.61,-1010.74 1015.98,-1000.81 1015.98,-1000.81"/>
<polygon fill="#14e018" stroke="#14e018" points="1015.72,-981.832 1020.09,-971.774 1015.66,-976.833 1015.59,-971.833 1015.59,-971.833 1015.59,-971.833 1015.66,-976.833 1011.09,-971.893 1015.72,-981.832 1015.72,-981.832"/>
</g>
<!-- Room&#45;&gt;PublicActivity::Activity -->
<g id="edge14" class="edge"><title>Room&#45;&gt;PublicActivity::Activity</title>
<path fill="none" stroke="#510e86" d="M1145.49,-1009.49C1158.31,-998.396 1169.92,-985.908 1179,-972 1208.55,-926.722 1199,-906.069 1199,-852 1199,-852 1199,-852 1199,-402 1199,-325.698 965.322,-263.977 842.894,-236.877"/>
<ellipse fill="none" stroke="#510e86" cx="1142.17" cy="-1012.27" rx="4.00002" ry="4.00002"/>
<polygon fill="#510e86" stroke="#510e86" points="842.608,-236.814 833.803,-230.278 837.724,-235.744 832.84,-234.673 832.84,-234.673 832.84,-234.673 837.724,-235.744 831.876,-239.069 842.608,-236.814 842.608,-236.814"/>
<text text-anchor="middle" x="1223.5" y="-604.3" font-family="Times,serif" font-size="14.00">activities</text>
</g>
<!-- Document -->
<g id="node8" class="node"><title>Document</title>
<path fill="none" stroke="black" d="M78,-525C78,-525 376,-525 376,-525 382,-525 388,-531 388,-537 388,-537 388,-679 388,-679 388,-685 382,-691 376,-691 376,-691 78,-691 78,-691 72,-691 66,-685 66,-679 66,-679 66,-537 66,-537 66,-531 72,-525 78,-525"/>
<text text-anchor="middle" x="227" y="-675.8" font-family="Times,serif" font-size="14.00">Document</text>
<polyline fill="none" stroke="black" points="66,-668 388,-668 "/>
<text text-anchor="start" x="74" y="-652.8" font-family="Times,serif" font-size="14.00">id :integer</text>
<text text-anchor="start" x="74" y="-637.8" font-family="Times,serif" font-size="14.00">created_at :timestamp without time zone</text>
<text text-anchor="start" x="74" y="-622.8" font-family="Times,serif" font-size="14.00">updated_at :timestamp without time zone</text>
<text text-anchor="start" x="74" y="-607.8" font-family="Times,serif" font-size="14.00">attached_doc_file_name :character varying</text>
<text text-anchor="start" x="74" y="-592.8" font-family="Times,serif" font-size="14.00">attached_doc_content_type :character varying</text>
<text text-anchor="start" x="74" y="-577.8" font-family="Times,serif" font-size="14.00">attached_doc_file_size :integer</text>
<text text-anchor="start" x="74" y="-562.8" font-family="Times,serif" font-size="14.00">attached_doc_updated_at :timestamp without time zone</text>
<text text-anchor="start" x="74" y="-547.8" font-family="Times,serif" font-size="14.00">lesson_id :integer</text>
<text text-anchor="start" x="74" y="-532.8" font-family="Times,serif" font-size="14.00">title :character varying</text>
</g>
<!-- Document&#45;&gt;PublicActivity::Activity -->
<g id="edge17" class="edge"><title>Document&#45;&gt;PublicActivity::Activity</title>
<path fill="none" stroke="#579bed" d="M105.167,-518.84C92.5966,-504.628 81.6497,-488.952 74,-472 48.772,-416.095 34.2249,-380.687 74,-334 76.4982,-331.068 506.016,-263.402 688.979,-234.693"/>
<ellipse fill="none" stroke="#579bed" cx="107.95" cy="-521.887" rx="4.00002" ry="4.00002"/>
<polygon fill="#579bed" stroke="#579bed" points="689.208,-234.657 699.784,-237.553 694.147,-233.882 699.087,-233.107 699.087,-233.107 699.087,-233.107 694.147,-233.882 698.389,-228.662 689.208,-234.657 689.208,-234.657"/>
<text text-anchor="middle" x="98.5" y="-399.3" font-family="Times,serif" font-size="14.00">activities</text>
</g>
<!-- User&#45;&gt;Comment -->
<g id="edge20" class="edge"><title>User&#45;&gt;Comment</title>
<path fill="none" stroke="#12efde" d="M994.872,-721.951C993.051,-709.757 991.245,-697.666 989.529,-686.18"/>
<ellipse fill="none" stroke="#12efde" cx="995.514" cy="-726.25" rx="4.00001" ry="4.00001"/>
<polygon fill="#12efde" stroke="#12efde" points="989.524,-686.146 992.497,-675.591 988.785,-681.201 988.047,-676.256 988.047,-676.256 988.047,-676.256 988.785,-681.201 983.596,-676.921 989.524,-686.146 989.524,-686.146"/>
</g>
<!-- User&#45;&gt;PublicActivity::Activity -->
<g id="edge19" class="edge"><title>User&#45;&gt;PublicActivity::Activity</title>
<path fill="none" stroke="#5de840" d="M1098.09,-722.727C1102.41,-712.6 1106.14,-702.299 1109,-692 1128.96,-620.052 1133.6,-594.497 1109,-524 1059.15,-381.153 893.472,-282.736 813.685,-242.43"/>
<ellipse fill="none" stroke="#5de840" cx="1096.46" cy="-726.41" rx="4.00002" ry="4.00002"/>
<polygon fill="#5de840" stroke="#5de840" points="813.346,-242.261 806.4,-233.775 808.87,-240.032 804.394,-237.803 804.394,-237.803 804.394,-237.803 808.87,-240.032 802.388,-241.831 813.346,-242.261 813.346,-242.261"/>
<text text-anchor="middle" x="1125.5" y="-494.3" font-family="Times,serif" font-size="14.00">activities</text>
</g>
<!-- Anserw -->
<g id="node12" class="node"><title>Anserw</title>
<path fill="none" stroke="black" d="M144,-160.5C144,-160.5 364,-160.5 364,-160.5 370,-160.5 376,-166.5 376,-172.5 376,-172.5 376,-269.5 376,-269.5 376,-275.5 370,-281.5 364,-281.5 364,-281.5 144,-281.5 144,-281.5 138,-281.5 132,-275.5 132,-269.5 132,-269.5 132,-172.5 132,-172.5 132,-166.5 138,-160.5 144,-160.5"/>
<text text-anchor="middle" x="254" y="-266.3" font-family="Times,serif" font-size="14.00">Anserw</text>
<polyline fill="none" stroke="black" points="132,-258.5 376,-258.5 "/>
<text text-anchor="start" x="140" y="-243.3" font-family="Times,serif" font-size="14.00">id :integer</text>
<text text-anchor="start" x="140" y="-228.3" font-family="Times,serif" font-size="14.00">content :character varying</text>
<text text-anchor="start" x="140" y="-213.3" font-family="Times,serif" font-size="14.00">correct :boolean</text>
<text text-anchor="start" x="140" y="-198.3" font-family="Times,serif" font-size="14.00">created_at :timestamp without time zone</text>
<text text-anchor="start" x="140" y="-183.3" font-family="Times,serif" font-size="14.00">updated_at :timestamp without time zone</text>
<text text-anchor="start" x="140" y="-168.3" font-family="Times,serif" font-size="14.00">question_id :integer</text>
</g>
<!-- Question&#45;&gt;Anserw -->
<g id="edge22" class="edge"><title>Question&#45;&gt;Anserw</title>
<path fill="none" stroke="#666445" d="M254,-341.764C254,-325.703 254,-308.216 254,-291.693"/>
<ellipse fill="none" stroke="#666445" cx="254" cy="-345.937" rx="4" ry="4"/>
<polygon fill="#666445" stroke="#666445" points="254,-291.551 258.5,-281.551 254,-286.551 254,-281.551 254,-281.551 254,-281.551 254,-286.551 249.5,-281.551 254,-291.551 254,-291.551"/>
</g>
<!-- Lesson&#45;&gt;Test -->
<g id="edge25" class="edge"><title>Lesson&#45;&gt;Test</title>
<path fill="none" stroke="#a9ba59" d="M552.297,-767.261C547.775,-737.801 542.737,-704.992 538.427,-676.919"/>
<ellipse fill="none" stroke="#a9ba59" cx="552.939" cy="-771.443" rx="4.00001" ry="4.00001"/>
<ellipse fill="#a9ba59" stroke="#a9ba59" cx="537.781" cy="-672.706" rx="4.00001" ry="4.00001"/>
</g>
<!-- Lesson&#45;&gt;Document -->
<g id="edge26" class="edge"><title>Lesson&#45;&gt;Document</title>
<path fill="none" stroke="#5cb4f7" d="M453.725,-770.659C420.688,-747.103 384.305,-721.162 350.539,-697.085"/>
<ellipse fill="none" stroke="#5cb4f7" cx="457.113" cy="-773.074" rx="4.00002" ry="4.00002"/>
<polygon fill="#5cb4f7" stroke="#5cb4f7" points="350.156,-696.813 344.627,-687.343 346.085,-693.91 342.014,-691.007 342.014,-691.007 342.014,-691.007 346.085,-693.91 339.402,-694.671 350.156,-696.813 350.156,-696.813"/>
</g>
<!-- Lesson&#45;&gt;Comment -->
<g id="edge27" class="edge"><title>Lesson&#45;&gt;Comment</title>
<path fill="none" stroke="#003c25" d="M647.218,-769.789C674.499,-747.216 706.302,-724.809 739,-710 781.332,-690.827 798.515,-708.392 842,-692 850.741,-688.705 859.542,-684.835 868.235,-680.6"/>
<ellipse fill="none" stroke="#003c25" cx="643.811" cy="-772.647" rx="4.00002" ry="4.00002"/>
<polygon fill="#003c25" stroke="#003c25" points="868.317,-680.559 879.272,-680.081 872.783,-678.31 877.249,-676.062 877.249,-676.062 877.249,-676.062 872.783,-678.31 875.225,-672.042 868.317,-680.559 868.317,-680.559"/>
</g>
<!-- Lesson&#45;&gt;PublicActivity::Activity -->
<g id="edge24" class="edge"><title>Lesson&#45;&gt;PublicActivity::Activity</title>
<path fill="none" stroke="#2adc9e" d="M618.097,-768.416C632.48,-744.375 647.292,-717.631 659,-692 698.3,-605.963 696.156,-579.756 726,-490 728.661,-481.998 730.026,-480.198 732,-472 751.22,-392.183 762.637,-295.571 767.396,-249.294"/>
<ellipse fill="none" stroke="#2adc9e" cx="615.919" cy="-772.027" rx="4.00002" ry="4.00002"/>
<polygon fill="#2adc9e" stroke="#2adc9e" points="767.413,-249.12 772.89,-239.619 767.913,-244.145 768.412,-239.17 768.412,-239.17 768.412,-239.17 767.913,-244.145 763.935,-238.72 767.413,-249.12 767.413,-249.12"/>
<text text-anchor="middle" x="750.5" y="-494.3" font-family="Times,serif" font-size="14.00">activities</text>
</g>
<!-- Anserw&#45;&gt;UserAnserw -->
<g id="edge29" class="edge"><title>Anserw&#45;&gt;UserAnserw</title>
<path fill="none" stroke="#b02bd1" d="M383.79,-160.903C411.776,-148.159 441.386,-134.677 469.439,-121.904"/>
<ellipse fill="none" stroke="#b02bd1" cx="379.98" cy="-162.637" rx="4.00002" ry="4.00002"/>
<polygon fill="#b02bd1" stroke="#b02bd1" points="469.788,-121.745 480.753,-121.697 474.338,-119.673 478.889,-117.601 478.889,-117.601 478.889,-117.601 474.338,-119.673 477.024,-113.506 469.788,-121.745 469.788,-121.745"/>
</g>
<!-- Comment&#45;&gt;PublicActivity::Activity -->
<g id="edge31" class="edge"><title>Comment&#45;&gt;PublicActivity::Activity</title>
<path fill="none" stroke="#10dcc4" d="M937.951,-532.871C890.87,-445.725 815.209,-305.68 784.076,-248.054"/>
<ellipse fill="none" stroke="#10dcc4" cx="939.868" cy="-536.419" rx="4.00002" ry="4.00002"/>
<polygon fill="#10dcc4" stroke="#10dcc4" points="784.057,-248.018 783.262,-237.081 781.68,-243.619 779.303,-239.22 779.303,-239.22 779.303,-239.22 781.68,-243.619 775.344,-241.359 784.057,-248.018 784.057,-248.018"/>
<text text-anchor="middle" x="929.5" y="-399.3" font-family="Times,serif" font-size="14.00">activities</text>
</g>
<!-- ActiveRecord::Base -->
<g id="node15" class="node"><title>ActiveRecord::Base</title>
<ellipse fill="none" stroke="black" cx="529" cy="-1225" rx="81.3646" ry="18"/>
<text text-anchor="middle" x="529" y="-1221.3" font-family="Times,serif" font-size="14.00">ActiveRecord::Base</text>
</g>
<!-- ActiveRecord::Base&#45;&gt;Test -->
<g id="edge4" class="edge"><title>ActiveRecord::Base&#45;&gt;Test</title>
<path fill="none" stroke="black" d="M519.498,-1206.93C485.078,-1142.76 372.121,-910.517 434,-730 441.548,-707.982 454.917,-686.879 469.247,-668.639"/>
</g>
<!-- ActiveRecord::Base&#45;&gt;Course -->
<g id="edge9" class="edge"><title>ActiveRecord::Base&#45;&gt;Course</title>
<path fill="none" stroke="black" d="M546.5,-1207.2C565.589,-1188.87 597.097,-1158.63 624.599,-1132.23"/>
</g>
<!-- ActiveRecord::Base&#45;&gt;TestResult -->
<g id="edge12" class="edge"><title>ActiveRecord::Base&#45;&gt;TestResult</title>
<path fill="none" stroke="black" d="M524.602,-1206.82C515.515,-1166.97 499.352,-1067.29 548,-1010 591.958,-958.234 652.562,-1024.2 696,-972 713.166,-951.371 740.577,-513.707 728,-490 724.443,-483.296 720.104,-477.019 715.202,-471.157"/>
</g>
<!-- ActiveRecord::Base&#45;&gt;UserAnserw -->
<g id="edge13" class="edge"><title>ActiveRecord::Base&#45;&gt;UserAnserw</title>
<path fill="none" stroke="black" d="M610.125,-1223.39C730.328,-1220.43 961.603,-1206.73 1148,-1148 1209.44,-1128.64 1276,-1144.42 1276,-1080 1276,-1080 1276,-1080 1276,-220 1276,-107.769 917.754,-75.2059 723.237,-65.797"/>
</g>
<!-- ActiveRecord::Base&#45;&gt;Room -->
<g id="edge16" class="edge"><title>ActiveRecord::Base&#45;&gt;Room</title>
<path fill="none" stroke="black" d="M607.965,-1220.78C680.936,-1215.66 791.296,-1202.38 881,-1168 895.574,-1162.41 910.221,-1155.11 924.225,-1147.1"/>
</g>
<!-- ActiveRecord::Base&#45;&gt;Document -->
<g id="edge18" class="edge"><title>ActiveRecord::Base&#45;&gt;Document</title>
<path fill="none" stroke="black" d="M492.546,-1208.75C453.777,-1192.5 397.869,-1168.97 397,-1168 274.743,-1032.04 240.37,-810.413 230.732,-691.155"/>
</g>
<!-- ActiveRecord::Base&#45;&gt;User -->
<g id="edge21" class="edge"><title>ActiveRecord::Base&#45;&gt;User</title>
<path fill="none" stroke="black" d="M606.672,-1219.52C688.225,-1213.23 809.237,-1198.88 843,-1168 896.705,-1118.89 852.827,-1074.78 886,-1010 892.598,-997.117 900.365,-984.308 908.759,-971.88"/>
</g>
<!-- ActiveRecord::Base&#45;&gt;Question -->
<g id="edge23" class="edge"><title>ActiveRecord::Base&#45;&gt;Question</title>
<path fill="none" stroke="black" d="M495.284,-1208.63C478.312,-1201.22 457.292,-1192.55 438,-1186 263.85,-1126.87 38,-1263.91 38,-1080 38,-1080 38,-1080 38,-607 38,-569.157 34.8777,-554.703 57,-524 64.506,-513.582 113.934,-483.485 161.396,-456.041"/>
</g>
<!-- ActiveRecord::Base&#45;&gt;Lesson -->
<g id="edge28" class="edge"><title>ActiveRecord::Base&#45;&gt;Lesson</title>
<path fill="none" stroke="black" d="M492.835,-1208.74C455.468,-1192.89 402.373,-1170.1 401,-1168 400.513,-1167.26 400.788,-1166.86 401,-1166 422.548,-1078.2 473.425,-987.697 512.843,-926.547"/>
</g>
<!-- ActiveRecord::Base&#45;&gt;Anserw -->
<g id="edge30" class="edge"><title>ActiveRecord::Base&#45;&gt;Anserw</title>
<path fill="none" stroke="black" d="M498.711,-1208.24C481.413,-1200.04 459.04,-1190.76 438,-1186 280.452,-1150.35 231.442,-1208.23 75,-1168 25.2306,-1155.2 0,-1131.39 0,-1080 0,-1080 0,-1080 0,-402 0,-331.063 66.7655,-285.55 131.836,-258.037"/>
</g>
<!-- ActiveRecord::Base&#45;&gt;Comment -->
<g id="edge32" class="edge"><title>ActiveRecord::Base&#45;&gt;Comment</title>
<path fill="none" stroke="black" d="M596.105,-1214.76C670.212,-1203.08 782.696,-1180.51 810,-1148 869.992,-1076.58 806.931,-813.744 848,-730 857.707,-710.207 872.133,-692.031 887.884,-676.113"/>
</g>
<!-- Object -->
<g id="node16" class="node"><title>Object</title>
<ellipse fill="none" stroke="black" cx="1332" cy="-1225" rx="34.1708" ry="18"/>
<text text-anchor="middle" x="1332" y="-1221.3" font-family="Times,serif" font-size="14.00">Object</text>
</g>
<!-- Object&#45;&gt;Ability -->
<g id="edge5" class="edge"><title>Object&#45;&gt;Ability</title>
<path fill="none" stroke="black" d="M1332,-1206.92C1332,-1180.84 1332,-1131.11 1332,-1102.25"/>
</g>
</g>
</svg>
