<?xml version="1.0" encoding="UTF-8" standalone="no"?>
<!DOCTYPE svg PUBLIC "-//W3C//DTD SVG 1.1//EN"
 "http://www.w3.org/Graphics/SVG/1.1/DTD/svg11.dtd">
<!-- Generated by graphviz version 2.36.0 (20140111.2315)
 -->
<!-- Title: models_diagram Pages: 1 -->
<svg width="824pt" height="558pt"
 viewBox="0.00 0.00 824.00 558.00" xmlns="http://www.w3.org/2000/svg" xmlns:xlink="http://www.w3.org/1999/xlink">
<g id="graph0" class="graph" transform="scale(1 1) rotate(0) translate(4 554)">
<title>models_diagram</title>
<polygon fill="none" stroke="none" points="-4,4 -4,-554 820,-554 820,4 -4,4"/>
<!-- _diagram_info -->
<g id="node1" class="node"><title>_diagram_info</title>
<text text-anchor="start" x="36" y="-535.6" font-family="Times,serif" font-size="13.00">Models diagram</text>
<text text-anchor="start" x="36" y="-521.6" font-family="Times,serif" font-size="13.00">Date: Nov 21 2015 &#45; 16:36</text>
<text text-anchor="start" x="36" y="-507.6" font-family="Times,serif" font-size="13.00">Migration version: 20151102181508</text>
<text text-anchor="start" x="36" y="-493.6" font-family="Times,serif" font-size="13.00">Generated by RailRoady 1.4.1</text>
<text text-anchor="start" x="36" y="-479.6" font-family="Times,serif" font-size="13.00">http://railroady.prestonlee.com</text>
</g>
<!-- Test -->
<g id="node2" class="node"><title>Test</title>
<ellipse fill="none" stroke="black" cx="237" cy="-268" rx="27" ry="18"/>
<text text-anchor="middle" x="237" y="-264.3" font-family="Times,serif" font-size="14.00">Test</text>
</g>
<!-- TestResult -->
<g id="node5" class="node"><title>TestResult</title>
<ellipse fill="none" stroke="black" cx="348" cy="-180" rx="48.1437" ry="18"/>
<text text-anchor="middle" x="348" y="-176.3" font-family="Times,serif" font-size="14.00">TestResult</text>
</g>
<!-- Test&#45;&gt;TestResult -->
<g id="edge3" class="edge"><title>Test&#45;&gt;TestResult</title>
<path fill="none" stroke="#6456a2" d="M251.798,-244.494C258.903,-234.874 268.038,-224.034 278,-216 286.664,-209.013 296.952,-202.913 306.936,-197.849"/>
<ellipse fill="none" stroke="#6456a2" cx="249.321" cy="-247.968" rx="4.00002" ry="4.00002"/>
<polygon fill="#6456a2" stroke="#6456a2" points="306.958,-197.838 317.92,-197.546 311.462,-195.666 315.965,-193.493 315.965,-193.493 315.965,-193.493 311.462,-195.666 314.01,-189.44 306.958,-197.838 306.958,-197.838"/>
</g>
<!-- Question -->
<g id="node10" class="node"><title>Question</title>
<ellipse fill="none" stroke="black" cx="155" cy="-180" rx="42.3701" ry="18"/>
<text text-anchor="middle" x="155" y="-176.3" font-family="Times,serif" font-size="14.00">Question</text>
</g>
<!-- Test&#45;&gt;Question -->
<g id="edge2" class="edge"><title>Test&#45;&gt;Question</title>
<path fill="none" stroke="#04afdf" d="M217.21,-246.244C205.095,-233.538 189.57,-217.257 177.061,-204.137"/>
<ellipse fill="none" stroke="#04afdf" cx="220.33" cy="-249.516" rx="4.00002" ry="4.00002"/>
<polygon fill="#04afdf" stroke="#04afdf" points="176.993,-204.066 173.349,-193.723 173.543,-200.447 170.092,-196.829 170.092,-196.829 170.092,-196.829 173.543,-200.447 166.835,-199.934 176.993,-204.066 176.993,-204.066"/>
</g>
<!-- PublicActivity::Activity -->
<g id="node14" class="node"><title>PublicActivity::Activity</title>
<ellipse fill="none" stroke="black" cx="457" cy="-92" rx="95.3122" ry="18"/>
<text text-anchor="middle" x="457" y="-88.3" font-family="Times,serif" font-size="14.00">PublicActivity::Activity</text>
</g>
<!-- Test&#45;&gt;PublicActivity::Activity -->
<g id="edge1" class="edge"><title>Test&#45;&gt;PublicActivity::Activity</title>
<path fill="none" stroke="#e808f4" d="M230.825,-242.129C226.633,-218.972 224.599,-184.705 242,-162 269.377,-126.278 315.44,-108.719 357.923,-100.216"/>
<ellipse fill="none" stroke="#e808f4" cx="231.645" cy="-246.195" rx="4.00001" ry="4.00001"/>
<polygon fill="#e808f4" stroke="#e808f4" points="357.942,-100.213 368.595,-102.815 362.858,-99.3014 367.774,-98.3899 367.774,-98.3899 367.774,-98.3899 362.858,-99.3014 366.954,-93.9653 357.942,-100.213 357.942,-100.213"/>
<text text-anchor="middle" x="266.5" y="-176.3" font-family="Times,serif" font-size="14.00">activities</text>
</g>
<!-- Ability -->
<g id="node3" class="node"><title>Ability</title>
<polygon fill="none" stroke="black" points="809.25,-434 754.75,-434 754.75,-398 809.25,-398 809.25,-434"/>
<text text-anchor="middle" x="782" y="-412.3" font-family="Times,serif" font-size="14.00">Ability</text>
</g>
<!-- Course -->
<g id="node4" class="node"><title>Course</title>
<ellipse fill="none" stroke="black" cx="405" cy="-416" rx="35.6194" ry="18"/>
<text text-anchor="middle" x="405" y="-412.3" font-family="Times,serif" font-size="14.00">Course</text>
</g>
<!-- Lesson -->
<g id="node11" class="node"><title>Lesson</title>
<ellipse fill="none" stroke="black" cx="289" cy="-342" rx="35.6194" ry="18"/>
<text text-anchor="middle" x="289" y="-338.3" font-family="Times,serif" font-size="14.00">Lesson</text>
</g>
<!-- Course&#45;&gt;Lesson -->
<g id="edge8" class="edge"><title>Course&#45;&gt;Lesson</title>
<path fill="none" stroke="#e76a40" d="M376.579,-397.359C359.308,-386.64 337.26,-372.955 319.607,-361.998"/>
<ellipse fill="none" stroke="#e76a40" cx="380.055" cy="-399.517" rx="4.00002" ry="4.00002"/>
<polygon fill="#e76a40" stroke="#e76a40" points="319.322,-361.82 313.198,-352.723 315.073,-359.183 310.825,-356.547 310.825,-356.547 310.825,-356.547 315.073,-359.183 308.452,-360.37 319.322,-361.82 319.322,-361.82"/>
</g>
<!-- Comment -->
<g id="node13" class="node"><title>Comment</title>
<ellipse fill="none" stroke="black" cx="518" cy="-268" rx="46.2191" ry="18"/>
<text text-anchor="middle" x="518" y="-264.3" font-family="Times,serif" font-size="14.00">Comment</text>
</g>
<!-- Course&#45;&gt;Comment -->
<g id="edge7" class="edge"><title>Course&#45;&gt;Comment</title>
<path fill="none" stroke="#c45649" d="M410.801,-389.989C417.652,-365.36 431.238,-328.038 455,-304 461.718,-297.204 470.035,-291.348 478.399,-286.475"/>
<ellipse fill="none" stroke="#c45649" cx="409.753" cy="-393.95" rx="4.00001" ry="4.00001"/>
<polygon fill="#c45649" stroke="#c45649" points="478.632,-286.349 489.567,-285.531 483.026,-283.963 487.42,-281.577 487.42,-281.577 487.42,-281.577 483.026,-283.963 485.272,-277.622 478.632,-286.349 478.632,-286.349"/>
</g>
<!-- Course&#45;&gt;PublicActivity::Activity -->
<g id="edge6" class="edge"><title>Course&#45;&gt;PublicActivity::Activity</title>
<path fill="none" stroke="#45fe11" d="M412.969,-390.327C413.808,-386.891 414.527,-383.38 415,-380 415.123,-379.12 415.005,-378.889 415,-378 414.691,-321.11 404.565,-306.103 414,-250 418.056,-225.882 424.524,-221.286 432,-198 439.652,-174.167 442.26,-168.364 448,-144 449.814,-136.299 451.445,-127.866 452.803,-120.114"/>
<ellipse fill="none" stroke="#45fe11" cx="411.9" cy="-394.255" rx="4.00001" ry="4.00001"/>
<polygon fill="#45fe11" stroke="#45fe11" points="452.829,-119.962 458.918,-110.841 453.654,-115.03 454.479,-110.099 454.479,-110.099 454.479,-110.099 453.654,-115.03 450.041,-109.356 452.829,-119.962 452.829,-119.962"/>
<text text-anchor="middle" x="438.5" y="-264.3" font-family="Times,serif" font-size="14.00">activities</text>
</g>
<!-- UserAnserw -->
<g id="node6" class="node"><title>UserAnserw</title>
<ellipse fill="none" stroke="black" cx="327" cy="-18" rx="54.3924" ry="18"/>
<text text-anchor="middle" x="327" y="-14.3" font-family="Times,serif" font-size="14.00">UserAnserw</text>
</g>
<!-- TestResult&#45;&gt;UserAnserw -->
<g id="edge11" class="edge"><title>TestResult&#45;&gt;UserAnserw</title>
<path fill="none" stroke="#f00260" d="M344.674,-153.658C340.827,-124.346 334.517,-76.2762 330.57,-46.1987"/>
<ellipse fill="none" stroke="#f00260" cx="345.232" cy="-157.911" rx="4.00001" ry="4.00001"/>
<polygon fill="#f00260" stroke="#f00260" points="330.533,-45.9147 333.693,-35.414 329.882,-40.9572 329.231,-35.9997 329.231,-35.9997 329.231,-35.9997 329.882,-40.9572 324.769,-36.5853 330.533,-45.9147 330.533,-45.9147"/>
</g>
<!-- TestResult&#45;&gt;PublicActivity::Activity -->
<g id="edge10" class="edge"><title>TestResult&#45;&gt;PublicActivity::Activity</title>
<path fill="none" stroke="#a326c2" d="M349.558,-153.898C351.276,-144.809 354.617,-135.055 361,-128 367.784,-120.501 376.306,-114.607 385.456,-109.974"/>
<ellipse fill="none" stroke="#a326c2" cx="348.967" cy="-158.003" rx="4.00001" ry="4.00001"/>
<polygon fill="#a326c2" stroke="#a326c2" points="385.667,-109.878 396.632,-109.847 390.22,-107.814 394.774,-105.749 394.774,-105.749 394.774,-105.749 390.22,-107.814 392.916,-101.65 385.667,-109.878 385.667,-109.878"/>
<text text-anchor="middle" x="385.5" y="-132.3" font-family="Times,serif" font-size="14.00">activities</text>
</g>
<!-- Room -->
<g id="node7" class="node"><title>Room</title>
<ellipse fill="none" stroke="black" cx="567" cy="-416" rx="32.2457" ry="18"/>
<text text-anchor="middle" x="567" y="-412.3" font-family="Times,serif" font-size="14.00">Room</text>
</g>
<!-- User -->
<g id="node9" class="node"><title>User</title>
<ellipse fill="none" stroke="black" cx="535" cy="-342" rx="26.949" ry="18"/>
<text text-anchor="middle" x="535" y="-338.3" font-family="Times,serif" font-size="14.00">User</text>
</g>
<!-- Room&#45;&gt;User -->
<g id="edge15" class="edge"><title>Room&#45;&gt;User</title>
<path fill="none" stroke="#cd44a6" d="M555.436,-388.981C552.511,-382.399 549.371,-375.334 546.451,-368.764"/>
<polygon fill="#cd44a6" stroke="#cd44a6" points="555.517,-389.163 555.466,-400.128 557.547,-393.732 559.578,-398.301 559.578,-398.301 559.578,-398.301 557.547,-393.732 563.69,-396.473 555.517,-389.163 555.517,-389.163"/>
<polygon fill="#cd44a6" stroke="#cd44a6" points="546.443,-368.747 546.494,-357.781 544.412,-364.178 542.382,-359.609 542.382,-359.609 542.382,-359.609 544.412,-364.178 538.269,-361.436 546.443,-368.747 546.443,-368.747"/>
</g>
<!-- Room&#45;&gt;PublicActivity::Activity -->
<g id="edge14" class="edge"><title>Room&#45;&gt;PublicActivity::Activity</title>
<path fill="none" stroke="#c631bf" d="M600.175,-401.472C622.919,-389.753 649,-370.352 649,-343 649,-343 649,-343 649,-179 649,-132.614 601.747,-111.086 554.124,-101.169"/>
<ellipse fill="none" stroke="#c631bf" cx="596.539" cy="-403.25" rx="4.00002" ry="4.00002"/>
<polygon fill="#c631bf" stroke="#c631bf" points="554.112,-101.166 545.141,-94.8606 549.202,-100.223 544.292,-99.2798 544.292,-99.2798 544.292,-99.2798 549.202,-100.223 543.443,-103.699 554.112,-101.166 554.112,-101.166"/>
<text text-anchor="middle" x="673.5" y="-264.3" font-family="Times,serif" font-size="14.00">activities</text>
</g>
<!-- Document -->
<g id="node8" class="node"><title>Document</title>
<ellipse fill="none" stroke="black" cx="144" cy="-268" rx="48.1437" ry="18"/>
<text text-anchor="middle" x="144" y="-264.3" font-family="Times,serif" font-size="14.00">Document</text>
</g>
<!-- Document&#45;&gt;PublicActivity::Activity -->
<g id="edge17" class="edge"><title>Document&#45;&gt;PublicActivity::Activity</title>
<path fill="none" stroke="#2f2732" d="M109.66,-248.682C74.7966,-227.749 29.3331,-192.448 55,-162 92.4715,-117.549 247.263,-101.733 353.456,-96.1068"/>
<ellipse fill="none" stroke="#2f2732" cx="113.457" cy="-250.904" rx="4.00002" ry="4.00002"/>
<polygon fill="#2f2732" stroke="#2f2732" points="353.588,-96.1002 363.803,-100.088 358.582,-95.8468 363.575,-95.5935 363.575,-95.5935 363.575,-95.5935 358.582,-95.8468 363.347,-91.0992 353.588,-96.1002 353.588,-96.1002"/>
<text text-anchor="middle" x="79.5" y="-176.3" font-family="Times,serif" font-size="14.00">activities</text>
</g>
<!-- User&#45;&gt;Comment -->
<g id="edge20" class="edge"><title>User&#45;&gt;Comment</title>
<path fill="none" stroke="#e50bfd" d="M529.089,-315.965C527.551,-309.452 525.888,-302.41 524.33,-295.809"/>
<ellipse fill="none" stroke="#e50bfd" cx="530.052" cy="-320.044" rx="4.00001" ry="4.00001"/>
<polygon fill="#e50bfd" stroke="#e50bfd" points="524.298,-295.673 526.379,-284.906 523.149,-290.807 522,-285.941 522,-285.941 522,-285.941 523.149,-290.807 517.62,-286.975 524.298,-295.673 524.298,-295.673"/>
</g>
<!-- User&#45;&gt;PublicActivity::Activity -->
<g id="edge19" class="edge"><title>User&#45;&gt;PublicActivity::Activity</title>
<path fill="none" stroke="#65511e" d="M553.845,-320.182C561.356,-310.515 569.126,-298.423 573,-286 589.62,-232.708 583.851,-208.524 553,-162 539.682,-141.917 518.389,-125.742 499.236,-114.114"/>
<ellipse fill="none" stroke="#65511e" cx="551.262" cy="-323.358" rx="4.00002" ry="4.00002"/>
<polygon fill="#65511e" stroke="#65511e" points="498.979,-113.965 492.601,-105.046 494.658,-111.45 490.337,-108.935 490.337,-108.935 490.337,-108.935 494.658,-111.45 488.073,-112.824 498.979,-113.965 498.979,-113.965"/>
<text text-anchor="middle" x="605.5" y="-220.3" font-family="Times,serif" font-size="14.00">activities</text>
</g>
<!-- Anserw -->
<g id="node12" class="node"><title>Anserw</title>
<ellipse fill="none" stroke="black" cx="155" cy="-92" rx="38.0212" ry="18"/>
<text text-anchor="middle" x="155" y="-88.3" font-family="Times,serif" font-size="14.00">Anserw</text>
</g>
<!-- Question&#45;&gt;Anserw -->
<g id="edge22" class="edge"><title>Question&#45;&gt;Anserw</title>
<path fill="none" stroke="#8d6c99" d="M155,-153.339C155,-142.855 155,-130.718 155,-120.091"/>
<ellipse fill="none" stroke="#8d6c99" cx="155" cy="-157.597" rx="4" ry="4"/>
<polygon fill="#8d6c99" stroke="#8d6c99" points="155,-120.084 159.5,-110.084 155,-115.084 155,-110.084 155,-110.084 155,-110.084 155,-115.084 150.5,-110.084 155,-120.084 155,-120.084"/>
</g>
<!-- Lesson&#45;&gt;Test -->
<g id="edge25" class="edge"><title>Lesson&#45;&gt;Test</title>
<path fill="none" stroke="#2e73ee" d="M272.515,-318.174C266.317,-309.593 259.283,-299.854 253.12,-291.319"/>
<ellipse fill="none" stroke="#2e73ee" cx="274.858" cy="-321.419" rx="4.00002" ry="4.00002"/>
<ellipse fill="#2e73ee" stroke="#2e73ee" cx="250.738" cy="-288.021" rx="4.00002" ry="4.00002"/>
</g>
<!-- Lesson&#45;&gt;Document -->
<g id="edge26" class="edge"><title>Lesson&#45;&gt;Document</title>
<path fill="none" stroke="#fd1354" d="M257.146,-325.183C234.584,-313.98 204.264,-298.924 180.69,-287.218"/>
<ellipse fill="none" stroke="#fd1354" cx="260.82" cy="-327.007" rx="4.00002" ry="4.00002"/>
<polygon fill="#fd1354" stroke="#fd1354" points="180.649,-287.198 173.694,-278.72 176.171,-284.974 171.692,-282.751 171.692,-282.751 171.692,-282.751 176.171,-284.974 169.691,-286.781 180.649,-287.198 180.649,-287.198"/>
</g>
<!-- Lesson&#45;&gt;Comment -->
<g id="edge27" class="edge"><title>Lesson&#45;&gt;Comment</title>
<path fill="none" stroke="#1c214e" d="M321.655,-325.62C338.01,-318.344 358.272,-309.965 377,-304 412.139,-292.808 422.245,-295.03 458,-286 462.674,-284.819 467.538,-283.535 472.384,-282.219"/>
<ellipse fill="none" stroke="#1c214e" cx="317.61" cy="-327.443" rx="4.00002" ry="4.00002"/>
<polygon fill="#1c214e" stroke="#1c214e" points="472.6,-282.159 483.437,-283.833 477.419,-280.828 482.239,-279.496 482.239,-279.496 482.239,-279.496 477.419,-280.828 481.04,-275.158 472.6,-282.159 472.6,-282.159"/>
</g>
<!-- Lesson&#45;&gt;PublicActivity::Activity -->
<g id="edge24" class="edge"><title>Lesson&#45;&gt;PublicActivity::Activity</title>
<path fill="none" stroke="#d29d1b" d="M300.154,-316.895C313.738,-289.628 338.898,-245.227 371,-216 383.643,-204.489 393.075,-210.253 405,-198 426.629,-175.778 440.937,-142.789 448.974,-119.736"/>
<ellipse fill="none" stroke="#d29d1b" cx="298.388" cy="-320.51" rx="4.00002" ry="4.00002"/>
<polygon fill="#d29d1b" stroke="#d29d1b" points="448.982,-119.712 456.405,-111.64 450.558,-114.967 452.134,-110.222 452.134,-110.222 452.134,-110.222 450.558,-114.967 447.863,-108.804 448.982,-119.712 448.982,-119.712"/>
<text text-anchor="middle" x="395.5" y="-220.3" font-family="Times,serif" font-size="14.00">activities</text>
</g>
<!-- Anserw&#45;&gt;UserAnserw -->
<g id="edge29" class="edge"><title>Anserw&#45;&gt;UserAnserw</title>
<path fill="none" stroke="#c678ca" d="M190.126,-76.2962C217.684,-64.7601 256.124,-48.6691 285.253,-36.4754"/>
<ellipse fill="none" stroke="#c678ca" cx="186.325" cy="-77.8874" rx="4.00002" ry="4.00002"/>
<polygon fill="#c678ca" stroke="#c678ca" points="285.521,-36.3632 296.484,-36.6527 290.134,-34.4324 294.746,-32.5017 294.746,-32.5017 294.746,-32.5017 290.134,-34.4324 293.008,-28.3507 285.521,-36.3632 285.521,-36.3632"/>
</g>
<!-- Comment&#45;&gt;PublicActivity::Activity -->
<g id="edge31" class="edge"><title>Comment&#45;&gt;PublicActivity::Activity</title>
<path fill="none" stroke="#97bd12" d="M512.124,-242.144C505.08,-213.916 492.173,-166.749 476,-128 474.787,-125.095 473.405,-122.116 471.952,-119.181"/>
<ellipse fill="none" stroke="#97bd12" cx="513.082" cy="-246.039" rx="4.00001" ry="4.00001"/>
<polygon fill="#97bd12" stroke="#97bd12" points="471.835,-118.958 471.174,-108.012 469.512,-114.531 467.189,-110.103 467.189,-110.103 467.189,-110.103 469.512,-114.531 463.204,-112.194 471.835,-118.958 471.835,-118.958"/>
<text text-anchor="middle" x="524.5" y="-176.3" font-family="Times,serif" font-size="14.00">activities</text>
</g>
<!-- ActiveRecord::Base -->
<g id="node15" class="node"><title>ActiveRecord::Base</title>
<ellipse fill="none" stroke="black" cx="341" cy="-511" rx="81.3646" ry="18"/>
<text text-anchor="middle" x="341" y="-507.3" font-family="Times,serif" font-size="14.00">ActiveRecord::Base</text>
</g>
<!-- ActiveRecord::Base&#45;&gt;Test -->
<g id="edge4" class="edge"><title>ActiveRecord::Base&#45;&gt;Test</title>
<path fill="none" stroke="black" d="M325.894,-493.051C303.459,-466.733 262.044,-413.48 244,-360 235.693,-335.377 235.156,-304.956 235.844,-286.271"/>
</g>
<!-- ActiveRecord::Base&#45;&gt;Course -->
<g id="edge9" class="edge"><title>ActiveRecord::Base&#45;&gt;Course</title>
<path fill="none" stroke="black" d="M352.739,-492.942C364.431,-475.952 382.253,-450.054 393.765,-433.326"/>
</g>
<!-- ActiveRecord::Base&#45;&gt;TestResult -->
<g id="edge12" class="edge"><title>ActiveRecord::Base&#45;&gt;TestResult</title>
<path fill="none" stroke="black" d="M341.752,-492.762C343.614,-449.126 348.402,-330.738 350,-232 350.115,-224.89 350.203,-223.108 350,-216 349.833,-210.16 349.51,-203.778 349.172,-198.081"/>
</g>
<!-- ActiveRecord::Base&#45;&gt;UserAnserw -->
<g id="edge13" class="edge"><title>ActiveRecord::Base&#45;&gt;UserAnserw</title>
<path fill="none" stroke="black" d="M420.305,-506.782C533.009,-500.01 726,-479.316 726,-417 726,-417 726,-417 726,-91 726,-56.1571 487.316,-32.141 379.162,-23.0472"/>
</g>
<!-- ActiveRecord::Base&#45;&gt;Room -->
<g id="edge16" class="edge"><title>ActiveRecord::Base&#45;&gt;Room</title>
<path fill="none" stroke="black" d="M397.898,-498.117C434.437,-489.104 482.151,-474.697 521,-454 532.035,-448.121 543,-439.442 551.455,-431.967"/>
</g>
<!-- ActiveRecord::Base&#45;&gt;Document -->
<g id="edge18" class="edge"><title>ActiveRecord::Base&#45;&gt;Document</title>
<path fill="none" stroke="black" d="M304.714,-494.777C288.056,-487.806 268.038,-479.455 250,-472 230.474,-463.929 220.447,-469.417 206,-454 160.371,-405.307 148.253,-322.002 145.091,-286.191"/>
</g>
<!-- ActiveRecord::Base&#45;&gt;User -->
<g id="edge21" class="edge"><title>ActiveRecord::Base&#45;&gt;User</title>
<path fill="none" stroke="black" d="M397.97,-498.125C426.355,-489.779 459.533,-476.045 483,-454 510.763,-427.919 525.125,-384.042 531.252,-360.007"/>
</g>
<!-- ActiveRecord::Base&#45;&gt;Question -->
<g id="edge23" class="edge"><title>ActiveRecord::Base&#45;&gt;Question</title>
<path fill="none" stroke="black" d="M307.299,-494.584C290.33,-487.168 269.309,-478.5 250,-472 157.745,-440.945 38,-514.341 38,-417 38,-417 38,-417 38,-267 38,-244.69 93.931,-212.119 128.451,-194.141"/>
</g>
<!-- ActiveRecord::Base&#45;&gt;Lesson -->
<g id="edge28" class="edge"><title>ActiveRecord::Base&#45;&gt;Lesson</title>
<path fill="none" stroke="black" d="M304.615,-494.892C266.647,-479.044 212.402,-456.13 211,-454 187.436,-418.192 236.801,-377.195 267.309,-356.486"/>
</g>
<!-- ActiveRecord::Base&#45;&gt;Anserw -->
<g id="edge30" class="edge"><title>ActiveRecord::Base&#45;&gt;Anserw</title>
<path fill="none" stroke="black" d="M309.81,-494.157C292.609,-486.149 270.614,-477.074 250,-472 160.76,-450.032 128.892,-489.211 44,-454 20.3989,-444.211 0,-442.551 0,-417 0,-417 0,-417 0,-179 0,-125.145 72.4316,-104.732 118.267,-97.2061"/>
</g>
<!-- ActiveRecord::Base&#45;&gt;Comment -->
<g id="edge32" class="edge"><title>ActiveRecord::Base&#45;&gt;Comment</title>
<path fill="none" stroke="black" d="M372.562,-494.143C396.295,-480.856 428.178,-459.916 449,-434 468.399,-409.855 499.467,-323.137 512.235,-286.036"/>
</g>
<!-- Object -->
<g id="node16" class="node"><title>Object</title>
<ellipse fill="none" stroke="black" cx="782" cy="-511" rx="34.1708" ry="18"/>
<text text-anchor="middle" x="782" y="-507.3" font-family="Times,serif" font-size="14.00">Object</text>
</g>
<!-- Object&#45;&gt;Ability -->
<g id="edge5" class="edge"><title>Object&#45;&gt;Ability</title>
<path fill="none" stroke="black" d="M782,-492.942C782,-476.267 782,-451.01 782,-434.264"/>
</g>
</g>
</svg>
