<?xml version="1.0" encoding="UTF-8" standalone="no"?>
<!DOCTYPE svg PUBLIC "-//W3C//DTD SVG 1.1//EN"
 "http://www.w3.org/Graphics/SVG/1.1/DTD/svg11.dtd">
<!-- Generated by graphviz version 2.36.0 (20140111.2315)
 -->
<!-- Title: models_diagram Pages: 1 -->
<svg width="888pt" height="930pt"
 viewBox="0.00 0.00 888.00 930.00" xmlns="http://www.w3.org/2000/svg" xmlns:xlink="http://www.w3.org/1999/xlink">
<g id="graph0" class="graph" transform="scale(1 1) rotate(0) translate(4 926)">
<title>models_diagram</title>
<polygon fill="none" stroke="none" points="-4,4 -4,-926 884,-926 884,4 -4,4"/>
<!-- _diagram_info -->
<g id="node1" class="node"><title>_diagram_info</title>
<text text-anchor="start" x="8" y="-825.6" font-family="Times,serif" font-size="13.00">Models diagram</text>
<text text-anchor="start" x="8" y="-811.6" font-family="Times,serif" font-size="13.00">Date: Oct 19 2015 &#45; 12:22</text>
<text text-anchor="start" x="8" y="-797.6" font-family="Times,serif" font-size="13.00">Migration version: 20150416090551</text>
<text text-anchor="start" x="8" y="-783.6" font-family="Times,serif" font-size="13.00">Generated by RailRoady 1.4.0</text>
<text text-anchor="start" x="8" y="-769.6" font-family="Times,serif" font-size="13.00">http://railroady.prestonlee.com</text>
</g>
<!-- Question -->
<g id="node2" class="node"><title>Question</title>
<path fill="none" stroke="black" d="M395,-159C395,-159 615,-159 615,-159 621,-159 627,-165 627,-171 627,-171 627,-253 627,-253 627,-259 621,-265 615,-265 615,-265 395,-265 395,-265 389,-265 383,-259 383,-253 383,-253 383,-171 383,-171 383,-165 389,-159 395,-159"/>
<text text-anchor="middle" x="505" y="-249.8" font-family="Times,serif" font-size="14.00">Question</text>
<polyline fill="none" stroke="black" points="383,-242 627,-242 "/>
<text text-anchor="start" x="391" y="-226.8" font-family="Times,serif" font-size="14.00">id :integer</text>
<text text-anchor="start" x="391" y="-211.8" font-family="Times,serif" font-size="14.00">content :character varying</text>
<text text-anchor="start" x="391" y="-196.8" font-family="Times,serif" font-size="14.00">created_at :timestamp without time zone</text>
<text text-anchor="start" x="391" y="-181.8" font-family="Times,serif" font-size="14.00">updated_at :timestamp without time zone</text>
<text text-anchor="start" x="391" y="-166.8" font-family="Times,serif" font-size="14.00">test_id :integer</text>
</g>
<!-- Anserw -->
<g id="node7" class="node"><title>Anserw</title>
<path fill="none" stroke="black" d="M395,-0.5C395,-0.5 615,-0.5 615,-0.5 621,-0.5 627,-6.5 627,-12.5 627,-12.5 627,-109.5 627,-109.5 627,-115.5 621,-121.5 615,-121.5 615,-121.5 395,-121.5 395,-121.5 389,-121.5 383,-115.5 383,-109.5 383,-109.5 383,-12.5 383,-12.5 383,-6.5 389,-0.5 395,-0.5"/>
<text text-anchor="middle" x="505" y="-106.3" font-family="Times,serif" font-size="14.00">Anserw</text>
<polyline fill="none" stroke="black" points="383,-98.5 627,-98.5 "/>
<text text-anchor="start" x="391" y="-83.3" font-family="Times,serif" font-size="14.00">id :integer</text>
<text text-anchor="start" x="391" y="-68.3" font-family="Times,serif" font-size="14.00">content :character varying</text>
<text text-anchor="start" x="391" y="-53.3" font-family="Times,serif" font-size="14.00">correct :boolean</text>
<text text-anchor="start" x="391" y="-38.3" font-family="Times,serif" font-size="14.00">created_at :timestamp without time zone</text>
<text text-anchor="start" x="391" y="-23.3" font-family="Times,serif" font-size="14.00">updated_at :timestamp without time zone</text>
<text text-anchor="start" x="391" y="-8.3" font-family="Times,serif" font-size="14.00">question_id :integer</text>
</g>
<!-- Question&#45;&gt;Anserw -->
<g id="edge1" class="edge"><title>Question&#45;&gt;Anserw</title>
<path fill="none" stroke="#cd95ec" d="M505,-150.615C505,-144.513 505,-138.28 505,-132.088"/>
<ellipse fill="none" stroke="#cd95ec" cx="505" cy="-154.887" rx="4" ry="4"/>
<polygon fill="#cd95ec" stroke="#cd95ec" points="505,-131.735 509.5,-121.735 505,-126.735 505,-121.735 505,-121.735 505,-121.735 505,-126.735 500.5,-121.735 505,-131.735 505,-131.735"/>
</g>
<!-- Course -->
<g id="node3" class="node"><title>Course</title>
<path fill="none" stroke="black" d="M244,-748C244,-748 464,-748 464,-748 470,-748 476,-754 476,-760 476,-760 476,-842 476,-842 476,-848 470,-854 464,-854 464,-854 244,-854 244,-854 238,-854 232,-848 232,-842 232,-842 232,-760 232,-760 232,-754 238,-748 244,-748"/>
<text text-anchor="middle" x="354" y="-838.8" font-family="Times,serif" font-size="14.00">Course</text>
<polyline fill="none" stroke="black" points="232,-831 476,-831 "/>
<text text-anchor="start" x="240" y="-815.8" font-family="Times,serif" font-size="14.00">id :integer</text>
<text text-anchor="start" x="240" y="-800.8" font-family="Times,serif" font-size="14.00">title :character varying</text>
<text text-anchor="start" x="240" y="-785.8" font-family="Times,serif" font-size="14.00">description :character varying</text>
<text text-anchor="start" x="240" y="-770.8" font-family="Times,serif" font-size="14.00">created_at :timestamp without time zone</text>
<text text-anchor="start" x="240" y="-755.8" font-family="Times,serif" font-size="14.00">updated_at :timestamp without time zone</text>
</g>
<!-- Lesson -->
<g id="node8" class="node"><title>Lesson</title>
<path fill="none" stroke="black" d="M244,-507C244,-507 464,-507 464,-507 470,-507 476,-513 476,-519 476,-519 476,-631 476,-631 476,-637 470,-643 464,-643 464,-643 244,-643 244,-643 238,-643 232,-637 232,-631 232,-631 232,-519 232,-519 232,-513 238,-507 244,-507"/>
<text text-anchor="middle" x="354" y="-627.8" font-family="Times,serif" font-size="14.00">Lesson</text>
<polyline fill="none" stroke="black" points="232,-620 476,-620 "/>
<text text-anchor="start" x="240" y="-604.8" font-family="Times,serif" font-size="14.00">id :integer</text>
<text text-anchor="start" x="240" y="-589.8" font-family="Times,serif" font-size="14.00">title :character varying</text>
<text text-anchor="start" x="240" y="-574.8" font-family="Times,serif" font-size="14.00">description :character varying</text>
<text text-anchor="start" x="240" y="-559.8" font-family="Times,serif" font-size="14.00">course_id :integer</text>
<text text-anchor="start" x="240" y="-544.8" font-family="Times,serif" font-size="14.00">created_at :timestamp without time zone</text>
<text text-anchor="start" x="240" y="-529.8" font-family="Times,serif" font-size="14.00">updated_at :timestamp without time zone</text>
<text text-anchor="start" x="240" y="-514.8" font-family="Times,serif" font-size="14.00">content :text</text>
</g>
<!-- Course&#45;&gt;Lesson -->
<g id="edge2" class="edge"><title>Course&#45;&gt;Lesson</title>
<path fill="none" stroke="#01cbf5" d="M354,-739.549C354,-713.055 354,-681.639 354,-653.458"/>
<ellipse fill="none" stroke="#01cbf5" cx="354" cy="-743.765" rx="4" ry="4"/>
<polygon fill="#01cbf5" stroke="#01cbf5" points="354,-653.236 358.5,-643.236 354,-648.236 354,-643.236 354,-643.236 354,-643.236 354,-648.236 349.5,-643.236 354,-653.236 354,-653.236"/>
</g>
<!-- Document -->
<g id="node4" class="node"><title>Document</title>
<path fill="none" stroke="black" d="M55,-303C55,-303 353,-303 353,-303 359,-303 365,-309 365,-315 365,-315 365,-457 365,-457 365,-463 359,-469 353,-469 353,-469 55,-469 55,-469 49,-469 43,-463 43,-457 43,-457 43,-315 43,-315 43,-309 49,-303 55,-303"/>
<text text-anchor="middle" x="204" y="-453.8" font-family="Times,serif" font-size="14.00">Document</text>
<polyline fill="none" stroke="black" points="43,-446 365,-446 "/>
<text text-anchor="start" x="51" y="-430.8" font-family="Times,serif" font-size="14.00">id :integer</text>
<text text-anchor="start" x="51" y="-415.8" font-family="Times,serif" font-size="14.00">created_at :timestamp without time zone</text>
<text text-anchor="start" x="51" y="-400.8" font-family="Times,serif" font-size="14.00">updated_at :timestamp without time zone</text>
<text text-anchor="start" x="51" y="-385.8" font-family="Times,serif" font-size="14.00">attached_doc_file_name :character varying</text>
<text text-anchor="start" x="51" y="-370.8" font-family="Times,serif" font-size="14.00">attached_doc_content_type :character varying</text>
<text text-anchor="start" x="51" y="-355.8" font-family="Times,serif" font-size="14.00">attached_doc_file_size :integer</text>
<text text-anchor="start" x="51" y="-340.8" font-family="Times,serif" font-size="14.00">attached_doc_updated_at :timestamp without time zone</text>
<text text-anchor="start" x="51" y="-325.8" font-family="Times,serif" font-size="14.00">lesson_id :integer</text>
<text text-anchor="start" x="51" y="-310.8" font-family="Times,serif" font-size="14.00">title :character varying</text>
</g>
<!-- User -->
<g id="node5" class="node"><title>User</title>
<path fill="none" stroke="black" d="M506.5,-680.5C506.5,-680.5 795.5,-680.5 795.5,-680.5 801.5,-680.5 807.5,-686.5 807.5,-692.5 807.5,-692.5 807.5,-909.5 807.5,-909.5 807.5,-915.5 801.5,-921.5 795.5,-921.5 795.5,-921.5 506.5,-921.5 506.5,-921.5 500.5,-921.5 494.5,-915.5 494.5,-909.5 494.5,-909.5 494.5,-692.5 494.5,-692.5 494.5,-686.5 500.5,-680.5 506.5,-680.5"/>
<text text-anchor="middle" x="651" y="-906.3" font-family="Times,serif" font-size="14.00">User</text>
<polyline fill="none" stroke="black" points="494.5,-898.5 807.5,-898.5 "/>
<text text-anchor="start" x="502.5" y="-883.3" font-family="Times,serif" font-size="14.00">id :integer</text>
<text text-anchor="start" x="502.5" y="-868.3" font-family="Times,serif" font-size="14.00">email :character varying</text>
<text text-anchor="start" x="502.5" y="-853.3" font-family="Times,serif" font-size="14.00">encrypted_password :character varying</text>
<text text-anchor="start" x="502.5" y="-838.3" font-family="Times,serif" font-size="14.00">reset_password_token :character varying</text>
<text text-anchor="start" x="502.5" y="-823.3" font-family="Times,serif" font-size="14.00">reset_password_sent_at :timestamp without time zone</text>
<text text-anchor="start" x="502.5" y="-808.3" font-family="Times,serif" font-size="14.00">remember_created_at :timestamp without time zone</text>
<text text-anchor="start" x="502.5" y="-793.3" font-family="Times,serif" font-size="14.00">sign_in_count :integer</text>
<text text-anchor="start" x="502.5" y="-778.3" font-family="Times,serif" font-size="14.00">current_sign_in_at :timestamp without time zone</text>
<text text-anchor="start" x="502.5" y="-763.3" font-family="Times,serif" font-size="14.00">last_sign_in_at :timestamp without time zone</text>
<text text-anchor="start" x="502.5" y="-748.3" font-family="Times,serif" font-size="14.00">current_sign_in_ip :inet</text>
<text text-anchor="start" x="502.5" y="-733.3" font-family="Times,serif" font-size="14.00">last_sign_in_ip :inet</text>
<text text-anchor="start" x="502.5" y="-718.3" font-family="Times,serif" font-size="14.00">created_at :timestamp without time zone</text>
<text text-anchor="start" x="502.5" y="-703.3" font-family="Times,serif" font-size="14.00">updated_at :timestamp without time zone</text>
<text text-anchor="start" x="502.5" y="-688.3" font-family="Times,serif" font-size="14.00">admin :boolean</text>
</g>
<!-- Room -->
<g id="node10" class="node"><title>Room</title>
<path fill="none" stroke="black" d="M541,-507C541,-507 761,-507 761,-507 767,-507 773,-513 773,-519 773,-519 773,-631 773,-631 773,-637 767,-643 761,-643 761,-643 541,-643 541,-643 535,-643 529,-637 529,-631 529,-631 529,-519 529,-519 529,-513 535,-507 541,-507"/>
<text text-anchor="middle" x="651" y="-627.8" font-family="Times,serif" font-size="14.00">Room</text>
<polyline fill="none" stroke="black" points="529,-620 773,-620 "/>
<text text-anchor="start" x="537" y="-604.8" font-family="Times,serif" font-size="14.00">id :integer</text>
<text text-anchor="start" x="537" y="-589.8" font-family="Times,serif" font-size="14.00">name :character varying</text>
<text text-anchor="start" x="537" y="-574.8" font-family="Times,serif" font-size="14.00">sessionId :character varying</text>
<text text-anchor="start" x="537" y="-559.8" font-family="Times,serif" font-size="14.00">public :boolean</text>
<text text-anchor="start" x="537" y="-544.8" font-family="Times,serif" font-size="14.00">created_at :timestamp without time zone</text>
<text text-anchor="start" x="537" y="-529.8" font-family="Times,serif" font-size="14.00">updated_at :timestamp without time zone</text>
<text text-anchor="start" x="537" y="-514.8" font-family="Times,serif" font-size="14.00">description :character varying</text>
</g>
<!-- User&#45;&gt;Room -->
<g id="edge3" class="edge"><title>User&#45;&gt;Room</title>
<path fill="none" stroke="#df455e" d="M651,-670.281C651,-664.595 651,-658.972 651,-653.472"/>
<polygon fill="#df455e" stroke="#df455e" points="651,-670.458 646.5,-680.458 651,-675.458 651,-680.458 651,-680.458 651,-680.458 651,-675.458 655.5,-680.458 651,-670.458 651,-670.458"/>
<polygon fill="#df455e" stroke="#df455e" points="651,-653.063 655.5,-643.063 651,-648.063 651,-643.063 651,-643.063 651,-643.063 651,-648.063 646.5,-643.063 651,-653.063 651,-653.063"/>
</g>
<!-- Ability -->
<g id="node6" class="node"><title>Ability</title>
<polygon fill="none" stroke="black" points="825.5,-778 825.5,-824 880.5,-824 880.5,-778 825.5,-778"/>
<text text-anchor="middle" x="853" y="-808.8" font-family="Times,serif" font-size="14.00">Ability</text>
<polyline fill="none" stroke="black" points="825.5,-801 880.5,-801 "/>
<text text-anchor="middle" x="853" y="-785.8" font-family="Times,serif" font-size="14.00"> </text>
</g>
<!-- Lesson&#45;&gt;Document -->
<g id="edge5" class="edge"><title>Lesson&#45;&gt;Document</title>
<path fill="none" stroke="#a3a012" d="M294.993,-500.438C288.845,-492.773 282.546,-484.921 276.273,-477.101"/>
<ellipse fill="none" stroke="#a3a012" cx="297.556" cy="-503.633" rx="4.00002" ry="4.00002"/>
<polygon fill="#a3a012" stroke="#a3a012" points="276.273,-477.1 273.526,-466.484 273.144,-473.2 270.016,-469.299 270.016,-469.299 270.016,-469.299 273.144,-473.2 266.505,-472.115 276.273,-477.1 276.273,-477.1"/>
</g>
<!-- Test -->
<g id="node9" class="node"><title>Test</title>
<path fill="none" stroke="black" d="M395,-325.5C395,-325.5 615,-325.5 615,-325.5 621,-325.5 627,-331.5 627,-337.5 627,-337.5 627,-434.5 627,-434.5 627,-440.5 621,-446.5 615,-446.5 615,-446.5 395,-446.5 395,-446.5 389,-446.5 383,-440.5 383,-434.5 383,-434.5 383,-337.5 383,-337.5 383,-331.5 389,-325.5 395,-325.5"/>
<text text-anchor="middle" x="505" y="-431.3" font-family="Times,serif" font-size="14.00">Test</text>
<polyline fill="none" stroke="black" points="383,-423.5 627,-423.5 "/>
<text text-anchor="start" x="391" y="-408.3" font-family="Times,serif" font-size="14.00">id :integer</text>
<text text-anchor="start" x="391" y="-393.3" font-family="Times,serif" font-size="14.00">created_at :timestamp without time zone</text>
<text text-anchor="start" x="391" y="-378.3" font-family="Times,serif" font-size="14.00">updated_at :timestamp without time zone</text>
<text text-anchor="start" x="391" y="-363.3" font-family="Times,serif" font-size="14.00">title :character varying</text>
<text text-anchor="start" x="391" y="-348.3" font-family="Times,serif" font-size="14.00">description :character varying</text>
<text text-anchor="start" x="391" y="-333.3" font-family="Times,serif" font-size="14.00">lesson_id :integer</text>
</g>
<!-- Lesson&#45;&gt;Test -->
<g id="edge4" class="edge"><title>Lesson&#45;&gt;Test</title>
<path fill="none" stroke="#45ca46" d="M413.562,-500.238C426.152,-484.646 439.363,-468.286 451.704,-453.002"/>
<ellipse fill="none" stroke="#45ca46" cx="410.814" cy="-503.641" rx="4.00002" ry="4.00002"/>
<ellipse fill="#45ca46" stroke="#45ca46" cx="454.423" cy="-449.635" rx="4.00002" ry="4.00002"/>
</g>
<!-- Test&#45;&gt;Question -->
<g id="edge6" class="edge"><title>Test&#45;&gt;Question</title>
<path fill="none" stroke="#23a03e" d="M505,-316.95C505,-303.202 505,-288.814 505,-275.276"/>
<ellipse fill="none" stroke="#23a03e" cx="505" cy="-321.325" rx="4" ry="4"/>
<polygon fill="#23a03e" stroke="#23a03e" points="505,-275.114 509.5,-265.114 505,-270.114 505,-265.114 505,-265.114 505,-265.114 505,-270.114 500.5,-265.114 505,-275.114 505,-275.114"/>
</g>
</g>
</svg>
